<?xml version="1.0" encoding="UTF-8"?>
<!DOCTYPE svg PUBLIC "-//W3C//DTD SVG 1.1//EN" "http://www.w3.org/Graphics/SVG/1.1/DTD/svg11.dtd">
<!-- Creator: CorelDRAW -->
<svg xmlns="http://www.w3.org/2000/svg" xml:space="preserve" width="78.4087mm" height="28.9427mm" version="1.1" style="shape-rendering:geometricPrecision; text-rendering:geometricPrecision; image-rendering:optimizeQuality; fill-rule:evenodd; clip-rule:evenodd"
viewBox="0 0 1322.37 488.12"
 xmlns:xlink="http://www.w3.org/1999/xlink"
 xmlns:xodm="http://www.corel.com/coreldraw/odm/2003">
 <defs>
  <style type="text/css">
   <![CDATA[
    .str0 {stroke:black;stroke-width:3.37;stroke-miterlimit:22.9256}
    .fil0 {fill:black}
    .fil16 {fill:#60330B}
    .fil11 {fill:#666686}
    .fil9 {fill:#898BAB}
    .fil8 {fill:#BFC1DE}
    .fil3 {fill:#C1C3DF}
    .fil10 {fill:#C2C4DF}
    .fil12 {fill:#DA9E83}
    .fil7 {fill:#DA9F85}
    .fil15 {fill:#DAA085}
    .fil14 {fill:#DC9F84}
    .fil6 {fill:#FBD0A6}
    .fil13 {fill:#FDCFA5}
    .fil5 {fill:#FDD0A5}
    .fil4 {fill:#FDFEFD}
    .fil1 {fill:#FF8548}
    .fil2 {fill:white}
    .fil17 {fill:#7AB256;fill-rule:nonzero}
    .fil18 {fill:#DF2020;fill-rule:nonzero}
    .fil19 {fill:white;fill-rule:nonzero}
   ]]>
  </style>
 </defs>
 <g id="Layer_x0020_1">
  <metadata id="CorelCorpID_0Corel-Layer"/>
  <g id="_2511961675456">
   <g>
    <path class="fil0 str0" d="M224.13 443.47c0.38,0.82 0.96,1.81 1.09,2.59l-6.68 -0.08c0.06,-1.15 0.62,-1.46 1.15,-2.37l4.44 -0.14zm33.82 -2.64l1.23 -4.16c0.97,0.16 36.88,21.59 41.54,24.44 1.12,0.68 5.26,2.82 5.84,3.82 1.95,0.37 6.12,4.8 7.09,6.94 2.1,4.62 -0.86,7.63 -5.64,6.94 -5.4,-0.78 -14.15,-7.67 -17.98,-10.34 -9.4,-6.56 -19.69,-14.16 -29.16,-20.53 -1.33,-0.89 -3.11,-2.04 -4.2,-2.9l1.29 -4.2zm-45.8 1.29c-0.44,1.82 -3.79,5.72 -6.39,4.81 -0.81,-0.28 -2.86,-3.69 -3.65,-4.87 -0.57,-0.85 -0.82,-0.96 -1,-1.73 -0.83,-0.57 -2.08,-2.97 -2.68,-3.85 -0.85,-1.25 -1.54,-2.39 -2.51,-3.67 -3.44,-4.53 -2.17,-5.66 -1.46,-9.12 1.16,0.42 0.7,0.31 1.42,1.19l5.6 5.46c1.53,1.22 1.87,1.17 2.12,2.27 1.17,5.06 5.82,6.98 7.93,8.79 0.49,0.42 0.24,0.11 0.61,0.72zm-10.18 -21.12c-2.35,-3.37 -2.5,-5.47 -0.78,-9.61 3.51,-8.45 9.03,-17.12 12.92,-24.91 8.74,-0.73 22.07,2.95 29.67,5.4 4.35,1.4 8.68,3.01 12.83,4.69 0.67,0.27 11.27,4.81 11.61,5.64 1.06,0.64 1.36,1.94 1.82,3.09 1.3,3.27 2.16,7.67 2.37,11.25 0.36,6.1 -0.58,10.68 -1.62,16.34 -2.88,0.4 -9.6,-0.24 -10.95,-2.49 1.86,-0.74 3.15,-3.3 2.98,-6.31 -1.22,1.07 -2.84,4.28 -7.71,4.84 0.15,-0.74 4.33,-4.73 0.7,-7.82 -0.59,0.9 0.01,-0.02 -0.54,0.48 -0.04,1.79 -3.76,6.86 -4.75,8.24 -0.93,1.31 -1.74,2.39 -2.9,3.54 -1.92,1.91 -1.92,2.64 -3.8,2.11l-1.4 -0.25c0.24,0.94 0.66,1.12 1.12,1.97 1.32,2.43 1.28,4.95 1.93,6.47 1.39,-0.07 1.55,-0.52 1.99,-1.69 0.54,-1.46 2.77,-6.72 3.66,-7.15 2.18,-0.32 4.45,0.96 5.34,2.41l-4.14 6.26c-0.87,1.43 -0.81,2.03 -2.69,2.46 -5.22,1.18 -17.22,-1.23 -18.57,-5.93 -0.04,-4.07 1.47,-9.28 2.49,-12.99 0.56,-2.04 2.73,-10.14 3.52,-11.41 -0.14,-0.89 0.21,-0.41 -0.28,-0.81 -0.57,0.87 -1.23,1.47 -2,2.41 -3.99,4.89 -7.76,13.06 -10.26,18.8 -1.32,-0.05 -5.11,-0.25 -5.87,-0.96 -2.26,0.04 -5.54,-1.69 -6.22,-3.06 -0.89,-1.8 0.22,-5.64 0.78,-7.51 0.69,-2.29 3.83,-12.11 4.79,-13.24 -0.1,-1 0.29,-0.42 -0.26,-0.82 -2.21,1.34 -5.29,4.82 -6.77,6.93l-5.07 8.25c-1.15,-0.9 -3.16,-3.02 -3.95,-4.58zm-60.17 -21.61c0,-0.97 -0.29,-4.39 0.46,-4.43l8.59 6.72c1.15,1.11 1.22,1.83 3.58,1.64 1.17,-0.1 3.62,-0.33 4.7,-0.55 3.52,-0.73 7.89,-2.73 10.9,-4.53 3.79,-2.28 1.48,-2.79 9.56,2.52 4.16,2.74 8.41,5.45 12.25,8.02 0.15,2.09 -1.1,3.26 -1.15,5.27 -0.08,3.92 0.46,1.77 -1.38,4.51 -1.39,2.07 -2.75,6.04 -2.7,9.15 0.07,3.8 1.77,6.19 3.33,8.77l3.51 5.52c0.69,0.99 0.88,0.66 0.9,1.91 -1.49,-0.02 -5.89,-0.92 -7.41,-1.31 -7.54,-1.91 -12.25,-2.66 -20.34,-5.44 -3.21,-1.1 -23.01,-8.21 -24.14,-10.11 -0.54,-0.91 -0.95,-16.52 -0.76,-18.71l0.12 -8.96zm-37.51 2.06c0.13,-0.05 5.93,0.32 7.15,0.24 2.1,-0.14 4.6,-0.61 6.56,-1.14 6.76,-1.81 9.21,-4.45 10.69,-4.99 0.08,0.42 -1.45,22.66 -1.58,23.08 -2.18,-0.5 -16.85,-11.74 -20.42,-14.78 -1.04,-0.88 -2.18,-1.63 -2.4,-2.42zm185.97 9.89c1.6,2.02 1.21,15.11 0.92,18.7l-0.86 5.76c0.8,3.82 -2.17,4.24 -4.06,5.32 -1.83,1.04 -2.74,2.18 -6.11,-0.72 -0.68,-0.27 -1.43,-0.77 -2.08,-1.09 0.05,-2.09 0.74,-4.66 0.88,-6.95 0.56,-8.76 1.05,-12.6 -0,-22.1 -1.37,-12.43 -9.01,-19.52 -9.71,-21.3 -0.48,-0.27 -2.15,-1.56 -2.54,-2.35l8.48 -3.98c2.8,1.42 7.92,9.06 9.65,12.28 1.54,2.87 5.64,12.88 5.42,16.44zm-156.94 -70.61c1.41,0.46 8.54,4.71 10.42,5.76 7.29,4.05 22.04,12.81 29.18,16.12l1.22 0.75c3.65,0.99 2.58,16.56 1.78,20.1 0.01,1.22 1.45,1.58 2.33,2.17l19.11 12.27c-0.05,0.87 -0.79,2.53 -1.3,3.3 -0.03,0.04 -0.11,0.21 -0.14,0.17 -0.02,-0.04 -0.09,0.12 -0.14,0.17l-0.55 1.84c-1.47,-0.38 -7.48,-4.71 -9.14,-5.75 -1.21,-0.76 -8.08,-5.07 -8.48,-5.65 -0.99,-0.36 -1.72,-1.01 -2.57,-1.57 -0.82,-0.53 -1.47,-1.29 -2.6,-1.16 -3.62,2.59 -10.05,6.88 -15.48,7.8 -2.62,0.44 -2.84,-0.44 -4.22,-1.58 -10.48,-8.66 -25.6,-18.98 -36.58,-27.23 0.27,-2.77 5.49,-13.15 6.93,-15.37 2.57,-3.93 6.54,-9.23 9.73,-12.38 0.66,0.15 0.23,-0.25 0.52,0.26zm164.91 93.63c-0.04,-0.05 -0.07,-0.13 -0.08,-0.16l-0.17 -0.57c-0.02,-0.1 -0.04,-0.61 -0.05,-0.73 -0.17,-4.36 -0.12,-6.04 -0.78,-10.91 -0.57,-4.15 -1.5,-7.73 -2.13,-11.51 -1.61,-6 -3.41,-11.2 -5.98,-16.44 -1.25,-2.55 -2.6,-5.07 -4.06,-7.27 -0.84,-1.26 -1.39,-2.09 -2.33,-3.34 -0.36,-0.49 -2.08,-2.63 -2.26,-3.08 0.96,-0.99 15.77,-7.32 18.36,-8.37 14.61,-5.91 25.7,-11.31 41.83,-11.21 5.44,0.03 18.23,1.88 22.4,3.88 0.89,-0.1 0.41,0.22 0.82,-0.25 -3.58,-1.59 -4.23,-2.88 -11.13,-5.65 -22.39,-8.99 -36,0.72 -38.41,-0.18l-2.56 -1.71c-1.52,-0.38 -4.01,-2.86 -5.01,-3.88 -1.53,-1.54 -2.66,-2.8 -3.76,-5.26 -2.16,-4.83 -1.73,-9.91 -1.2,-15.26 -0.37,-0.66 0.14,-1.03 -0.71,0.27 -0.75,1.17 -1.16,2.87 -1.88,3.62 -0.75,-0.43 -1.07,-0.88 -1.73,-1.38 -0.68,-0.52 -1.12,-0.65 -1.58,-1.35 -0.81,-0.16 -1.47,-0.75 -2.43,-1.34l-7.12 -3.93c0.01,-1.96 1.06,-5.85 1.44,-8.1 1.56,-9.08 6.28,-29.68 8.84,-37.98 0.83,-2.7 3.59,-12.09 4.88,-13.6 13.34,3.83 17.51,11.1 25.56,20.99 5.23,6.42 10.48,13.75 15.67,20.37 4.03,5.14 18.7,24.77 22.62,28.87 1.64,1.71 3.11,3.62 4.71,5.59 5.74,7.11 12.74,19.59 11.46,29.65 -0.82,6.41 -3.24,10.86 -6.73,13.86 -7.15,6.13 -15.46,11.42 -24.29,16.9 -8.41,5.21 -17.1,10.38 -25.94,15.25 -5.37,2.96 -18.02,10.37 -23.17,12.87 -0.62,0.3 -1.04,0.5 -1.68,0.9 -1.6,1 -1.28,0.84 -1.41,0.45zm-85.95 -91.77c-9.31,-1.54 -15.71,-3.36 -24.08,-7.59 -2.47,-1.25 -11.77,-6.28 -12.3,-8.74 -0.85,-3.91 -2.23,-15.13 -1.95,-19.07 0.27,0.24 0.14,0.08 0.39,0.46l3.06 6.48c7.35,12.49 21.57,20.28 35.29,24.99 2.22,0.76 5.66,1.56 7.59,2.42 0.24,2.52 -1.24,1.85 -3.36,1.55 -1.58,-0.22 -3.14,-0.24 -4.64,-0.49zm-129.68 -44.01l8.72 -5.04c1.79,-1.09 7.52,-5.31 8.27,-5.35 2.77,5.65 17.83,44.82 19.86,50.92 2.5,7.54 1.81,5.91 -0.98,10.16 -2.16,3.28 -7.7,15.81 -7.78,20.56 2.24,1.56 4.8,3.53 7.03,5.27 1.24,0.96 2.26,1.8 3.45,2.73 0.65,0.51 1.08,0.81 1.74,1.35l1.74 1.52 0.86 0.68c-1,1.36 -4.14,3.49 -5.91,4.55 -18.25,10.97 -35.22,-7.13 -42.95,-22.79 -2.3,-4.65 -4.83,-9.2 -6.96,-13.91l-18.69 -42.94c9.62,-0.45 16.09,-1.57 24.72,-4.95 1.39,-0.54 6.1,-2.71 6.89,-2.77zm186.59 13.59c0.25,1.07 -1.39,12.07 -1.69,14.19 -0.62,4.34 -0.17,4.83 -2.09,5.83 -1.71,0.89 -3.44,1.71 -5.19,2.54 -3.98,1.9 -19.65,7.77 -24.24,7.39 -1.05,0.8 -7.05,1.08 -8.77,1.15 0.01,-2 0.44,-6.64 0.98,-8.39 4.53,-1.99 8.48,-3.54 12.68,-5.86 10.18,-5.61 18.33,-11.74 25.68,-20.4 0.85,-1.01 3.11,-4.46 4.03,-4.97l-1.39 8.51zm-90.11 -25.38c0.06,0.04 0.14,0.1 0.18,0.13l0.85 0.83c3.77,4.42 1.36,0.68 4.73,6.59 3.36,5.9 6.7,10.19 12.23,14.03 3.67,2.54 6.88,3.08 7.9,5.12 1.4,1.33 2.14,4.83 1.99,7.38 -0.12,2.08 -0.64,6.3 -1.79,7.69 -2.9,-0.58 -10.48,-5.92 -12.11,-7.43 -3.33,-3.08 -6.16,-6.17 -8.8,-10.51 -4.66,-7.68 -9.14,-21.21 -8.72,-30.21 0.79,0.71 1.27,2.3 1.85,3.36 0.49,0.9 1.52,2.18 1.7,3.01zm-98.02 8.6c-1.12,1.4 -11.34,4.68 -14.08,5.25 -5.13,1.06 -12.11,2.21 -17.67,1.53 -0.7,-0.7 -3.36,-7.37 -3.41,-8.34l-0.24 -0.33c-0.03,-0.05 -0.08,-0.12 -0.11,-0.17l-0.9 -2.23c6.05,-0.02 10.44,0.39 16.42,-0.52 10.14,-1.54 21.21,-6.81 28.13,-13.85 0.9,-0.92 3.43,-3.85 3.97,-4.2 0.54,0.59 2.76,6.41 3.29,7.73 0.66,1.65 1.47,2.44 0.39,3.6 -3.08,3.3 -11.32,9.96 -15.78,11.53zm332.06 -16.63c0.15,4.42 -5.11,4.94 -6.48,1.76 -1.65,-3.84 3.16,-6.42 5.55,-3.25 -0.57,1.71 -2.03,1.68 -2.56,3.19 0.72,0.31 1.22,0.09 1.7,-0.53 0.91,-1.19 0.3,-1.11 1.79,-1.16zm1.36 -3.19c1.38,0.6 1.38,-0.5 2.18,-1.22 1.36,-1.22 1.5,0.44 0.97,1.43 -2.64,4.94 -8.99,0.1 -5.83,-3.67 1.4,-1.68 3.89,-1.39 5.06,0.61 -0.53,1.3 -1.78,1.54 -2.37,2.85zm-288.95 34.76c-0.57,-1.83 -1.58,-4.73 -2.75,-5.87l8.47 -10.11c4.85,-5.44 12.69,-15.68 17.32,-19.5 1.79,-1.48 8.71,-6.4 11.36,-7.06l-0.2 3.77c-1.7,5.85 -2.25,32.07 -2.23,38.77 0,1.39 0.03,2.74 0.1,4.12 0.1,1.91 0.08,2.02 -0.87,3.07 -2.66,2.94 -3.86,5.14 -5.79,8.37l-0.89 0.92c-1.05,-2.01 -1.11,-6.77 -0.69,-9.23 0.72,-4.19 1.7,-4.79 2.52,-7.26 -3.06,1.53 -6.81,8.67 -7.87,13.03 -2.53,10.4 2.5,12.51 -0.65,17.34 -1.39,-0.45 -4.33,-2.19 -5.74,-3 -1.16,-0.66 -4.78,-2.82 -5.85,-3 -0.85,0.19 -3.75,3.57 -4.63,3.99 -0.54,-1.05 -0.57,-2.6 -0.87,-3.8 -0.33,-1.32 -0.68,-2.28 -1.09,-3.55l-4.49 -13.51c-0.68,-2.04 -1.83,-4.8 -2.3,-6.79 1.94,0.59 4.59,3.62 5.67,4.95 1.67,2.05 2.36,4.16 3.8,6.6 0.03,-2.95 -1.36,-9.66 -2.32,-12.25zm143.56 -25.83c-0.67,3.96 -5.38,12.02 -7.3,14.98 -6,9.24 -13.68,16.03 -22.83,21.98 -2.81,1.82 -11.36,6.78 -14.74,7.6 -2.22,-3.46 -1.83,-11.47 1.07,-16.38 0.81,-1.36 1.68,-3.1 3.15,-3.25 1.32,-1.52 30.4,-9.2 40.39,-40.49 2.33,-7.3 -0.04,-7.83 3.48,-7.21 0.57,3.01 -0.08,9.34 -0.58,12.42 -0.31,1.88 -0.65,3.55 -1.1,5.33 -0.23,0.89 -0.44,1.75 -0.68,2.68 -0.1,0.39 -0.19,0.74 -0.34,1.18l-0.5 1.17zm-25.13 7.87c-1.09,1.9 -10.49,7.72 -13.96,9.32 -3.64,1.67 -4.77,1.84 -7.45,4.14 -2.14,1.84 -3.1,3.77 -4.7,6.75 -1.29,3.76 -1.52,5.54 -1.49,9.84 0.01,1.95 1.63,8.53 1.43,9.06 -2.72,1.01 -5.23,-0.13 -6.7,-1.33 0.09,-0.98 1.33,-3.34 1.67,-5.25 1.28,-7.33 -0.92,-15.34 -7.97,-18.85 -5.39,-2.68 -7.57,-5.34 -10.83,-9.3 0.79,-0.04 3.79,0.79 4.98,0.98 1.68,0.26 4.16,0.36 5.92,0.43 10.71,0.03 19.51,-2.92 26.57,-7.92 5.29,-3.75 13.74,-11.35 17.62,-17.09 0.9,-0.96 0.91,-1.55 2.22,-2.2l8.77 -4.01c-1.01,5.14 -3.81,10.89 -6.23,14.53 -2.13,3.21 -5.36,7.18 -8.3,9.72l-1.54 1.18zm-18.98 57.08c11.39,0.02 21.65,-2.05 31.66,-5.16 4.61,-1.43 8.8,-3.28 13.01,-5.26 3.67,-1.73 4.07,-1.9 4.44,-4.79l2.27 -16.06c0.48,-2.46 0.92,-5.23 1.3,-7.66 0.83,-5.35 1.61,-10.58 2.61,-15.68 0.52,-2.62 0.69,-5.44 1.31,-7.97 0.59,-2.4 0.97,-5.18 1.39,-7.63 0.36,-2.17 2.52,-13.51 3.32,-14.92 1.51,-0.04 5.19,1.16 6.35,1.77 -0.03,0.73 -0.94,3.76 -1.26,4.85 -1.13,3.92 -2.47,10.55 -3.4,14.62 -0.4,1.73 -0.75,3.24 -1.13,5.06 -0.17,0.8 -0.37,1.77 -0.58,2.5 -1.21,4.08 -3.11,16.97 -4.28,22.47 -0.21,0.99 -0.07,1.88 -0.26,2.86l-0.86 5.27c-0.45,5.74 -2.06,21.27 1.77,23.9 1.46,-1.96 0.59,-7.49 2.06,-9.75 1.31,0.15 5.14,3.75 6.33,5 0.41,0.43 0.61,0.8 1.05,1.29 2.37,2.65 5.45,8.02 6.73,11.28 0.61,1.55 1.33,2.2 0.86,3.15 -1.34,0.25 -6.5,-2.87 -7.38,-3.56 -2.62,-2.05 -3.51,-3.22 -5.13,-5.96 -0.12,0.92 0.92,3.99 1.22,5.21 0.88,3.57 4.2,8.24 7.62,9.91 1.03,0.5 1.7,0.29 2.29,1 -0.3,0.56 -8.57,3.86 -9.2,4.12l-18.21 8.06c-3.95,1.97 -9.33,4.11 -13.65,6.18 -1.87,0.9 -2.6,1.85 -4.76,1 -3.2,-1.27 -6.59,-2.14 -10.14,-3.01 -6.74,-1.64 -15.96,-2.98 -23.29,-2.98 -2.5,0 -8.97,-0.24 -10.33,1.01l-3.28 3.93c-1.01,1.37 -2.28,2.79 -3.21,4.24 -1.46,2.3 -1.27,2.44 -2.99,4.11l-8.33 -5.48c-1.52,-0.95 -2.84,-1.8 -4.26,-2.7 -6.22,-3.94 -3.82,-1.05 -3.96,-11.03 -0.05,-3.5 -1.21,-11.28 -3.45,-13.49 -1.14,-1.12 -24.4,-12.37 -27.92,-14.31 0.01,-1.85 2.55,-7.2 3.22,-9.13 0.29,-0.82 0.65,-1.48 0.96,-2.14l1.92 -4.26c0.87,-2.01 0.3,-1.49 1.17,-1.99 0.77,1.11 1.98,11.41 5.34,13.54 0.13,-0.25 -1,-18.06 -1,-20.49 0,-5.99 0.53,-23.92 1.33,-29.31 0.26,-1.74 0.63,-5.1 0.72,-6.74 0.17,-3.22 2.08,-18.37 2.81,-19.5 0.97,0.49 1.57,2.13 2.18,3.16 0.85,1.43 0.83,2.25 0.52,4.67 -0.75,5.85 -1.21,24.05 -1.2,30.47 0.02,9.63 0.38,19.05 0.83,28.6 0.95,0.59 1.6,1.28 2.67,1.91 7.77,4.61 11.32,6.99 20.76,10.4 9.57,3.46 20.15,5.41 31.38,5.43zm-6.3 -89.59c-1.85,2.57 -8.49,3.86 -12.56,4.29 -5.88,0.63 -10.46,0.27 -16.25,0.15 -0.55,-0.43 -0.2,-0.04 -0.58,-0.69l-1.72 -4.85c2.54,-0.23 5.09,-0.48 7.41,-0.94l-0.37 -0.3c-0.04,-0.03 -0.13,-0.1 -0.17,-0.13 -0.05,-0.03 -0.22,-0.16 -0.3,-0.2 -1.24,0.23 -7,-0.57 -7.87,-1.11 -0.32,-0.2 -3.29,-5.04 -3.5,-5.55 1.24,-0.03 3.63,0.53 5,0.77 1.63,0.29 3.31,0.42 5.02,0.54 7.13,0.47 13.61,-0.3 20.47,-2.16l8.43 -2.8c0.32,-0.35 0.02,-0.09 0.46,-0.38l3.3 -1.61c1.05,-0.56 2.8,-1.77 3.61,-1.99 -1.09,5.67 -6.79,15.46 -10.38,16.98zm-41.08 -21.86c0.01,2.61 -0.98,2.64 0.78,4.35 1.14,1.11 1.94,1.16 1.04,2.81 -1.44,0.1 -3.17,-1.9 -3.67,-2.73l-1.06 0.6c-0.3,0.19 -0.37,0.25 -0.58,0.42 0.2,1.56 0.38,1.21 1.88,2.59 0.77,0.7 1.19,1.13 0.07,2.18 -0.97,-0.1 -1.69,-1.09 -2.36,-1.72 -1.95,-1.81 -2.43,0.12 -3,-1.86l-0.29 -1.25c-0.23,-0.58 -0.6,-0.84 -0.6,-1.8 0.01,-1.46 1.14,-2.29 2.64,-2.02 0.07,1.72 -0.47,0.94 -0.57,2.6 2.98,-0.07 3,-3.26 5.72,-4.16zm7.36 -0.18c0.35,0.85 0.07,1.52 -0.59,2.27 -2.06,2.35 -4.58,1.56 -5.67,-0.41 -2.2,-3.98 3.76,-7.02 5.3,-3.26 -0.54,1.13 -0.53,0.66 -1.43,1.6 -0.6,0.63 -0.98,0.75 -1.03,1.66 2.7,-0.2 1.5,-2.57 3.42,-1.87zm-105.87 -6.19c-0.01,-0.04 -0.05,0.13 -0.09,0.19 -4.48,-2.16 -10.64,-12.16 -7.96,-12.84 2.24,-0.57 2.34,0.41 4.64,2.75 1.53,1.56 3.91,2.77 6.2,3.54 -0.34,0.81 -0.49,0.79 -0.97,1.49 -1.43,2.08 -1.23,2.94 -1.66,4.47 -0.02,0.06 -0.06,0.16 -0.07,0.2 -0.02,0.05 -0.07,0.23 -0.08,0.2zm227.83 -43.53c3.47,-0.24 20.73,6.3 39.63,-2.87 17.74,-8.61 22.67,-21.07 24.14,-22.34l5.84 8.78c1.84,3.16 3.55,6.02 5.37,9.3 3.31,5.99 6.53,13.16 9.14,19.95 5.14,13.32 10.32,32.78 11.22,47.34 1.8,29.14 -0.07,49.94 -9.2,76.94 -1.22,3.61 -2.62,7.26 -4.07,10.6 -0.73,1.69 -3.82,8.96 -4.62,9.77l-21.3 -27.59c-3.48,-4.66 -7.25,-9.2 -10.75,-13.72 -6.48,-8.37 -25.85,-32.53 -33.56,-39.56 -4.34,-3.96 -9.5,-5.88 -16.24,-8.23 -2.97,-1.03 -6.27,-1.9 -9.39,-2.68l-9.91 -2.24c0.23,-0.8 0.69,-1.1 1.19,-1.8 1.86,-2.62 2.43,-5.26 2.97,-6.03 0.64,-0.93 3.26,-1.16 4.36,-1.55 1.36,-0.48 2.95,-1.13 4.21,-1.74 5.3,-2.58 9.54,-6.49 12.29,-11.39 4.39,-7.81 5.17,-20.33 0.92,-29.15 -0.64,-1.33 -1.37,-2.55 -2.19,-3.73 -0.96,-1.37 -1.99,-2.15 -2.64,-3.25 0.42,-1.11 1.89,-3.62 2.6,-4.82zm-279.82 -1.09c0.17,-1.86 2.83,-2.85 5.04,-2.85 6.26,0 9.75,5.43 12.55,10.63 3.67,6.81 7.05,15.18 5.8,24.6l0.18 0.76c1.3,-1.55 1.76,-1.64 2.82,-3.82 2.76,-5.67 0.95,-8.86 2.81,-10.58 2.03,-1.89 2.19,-2.82 3.49,-3.38 0.07,-0.1 0.02,-0.12 0.3,-0.33 1.3,-0.99 8.32,-0.05 10.46,0.12 3.98,0.32 6.38,0.9 8.71,3.11 3.5,3.31 8.73,4.96 11.08,6.69 1.15,0.84 1.7,3.08 0.78,4.46 -0.76,2.7 -3.75,5.05 -7.44,4.53 -3.59,-0.51 -5.82,-3.88 -7.06,-4.79l0.54 -1.83c-5.15,0.78 -7.04,1.73 -13.14,-0.24 -1.3,-0.42 -2.5,-1.22 -3.6,-1.47 0.53,3.98 1.94,4.35 3.51,5.82l-0.6 1.13c-0.6,1.63 -2.97,4.23 -4.2,4.61 0.26,0.26 0.05,0.44 1.38,0.21l4.08 -1.01c1.33,2.25 2.87,12.19 13.36,15.69 2.62,0.87 0.45,1.63 3.29,4.67l2.18 1.71c0.98,0.26 0.45,0.48 0.68,-0.25 -0.88,-0.25 -1.97,-2.98 -2.01,-4.6 0.91,0.39 1.75,1.8 2.76,2.63 1.02,0.84 1.77,1.31 3.17,1.92l1.33 0.08c-0.63,-1.22 -1.79,-2.51 -2.64,-4.12 -3.05,-5.76 -2.45,-12.01 2.35,-13.68 0.45,-0.7 1.93,-1.14 3.03,-1.36 3.17,-0.66 4.05,6.52 4.51,8.74 0.55,2.64 0.94,5.15 1.71,7.57 1.47,4.68 3.27,4.47 -6.26,9.92 -5.34,3.06 -10.24,8.3 -14.01,13.2 -0.43,0.91 -1.13,1.63 -1.31,2.77 1.25,-0.54 2.32,-2.03 3.84,-2.51 0.56,0.57 3.33,6.55 3.55,7.5 -0.82,1.42 -4.9,4.1 -6.87,5.18 -2.62,1.45 -5.17,2.5 -8.26,3.58 -4.35,1.53 -15.69,3.75 -20.63,3.09 -3.71,-11.34 -2.62,-8.03 -5.46,-9.97 -2,-1.37 -2.9,-2.58 -4.23,-4.78 -3.62,-5.99 -7.12,-21.2 -10.65,-25.66 -3.04,-3.84 -9.11,-8.51 -12.9,-11.3 -1.22,-0.9 -2.44,-1.72 -3.53,-2.65 -1.65,-1.4 -2.29,-2.02 -1.95,-3.24 0.02,-0.06 0.09,-0.09 0.1,-0.21 0.01,-0.12 0.07,-0.15 0.12,-0.21 0.59,-3.09 8.95,-2.68 14.28,1.4 1.72,1.32 3.61,3.21 4.85,4.93 0.86,1.18 3.45,4.68 3.56,6.14 0.06,-0.05 0.1,-0.14 0.12,-0.2 0.95,-2.12 -0.08,1.21 0.25,-0.65l-0.17 -2.35c-0.73,-5.98 -3.51,-12.86 -7.13,-17.36 -5.09,-6.33 -8.19,-7.36 -10.94,-10.17 -1.19,-1.22 -1.98,-3.58 -0.4,-4.8 0.36,-1.68 2.6,-2.19 4.97,-2.03 4.83,0.32 10.01,4.88 12.63,8.18 3.46,4.36 8.19,15.26 7.88,19.87 0.49,0.49 0.49,0.56 0.49,1.35 5.34,-9.7 -2.53,-26.14 -8.48,-34.51 -2.23,-3.14 -5.16,-5.73 -5.14,-8.36 0.01,-0.83 0.1,-1.14 0.48,-1.53zm137.5 13.25c-1.55,-5.94 0.93,-13.49 4.37,-16.23 4.59,-3.65 12.76,-3.13 14.29,2.69 -2.04,-0.93 -2.88,-2.01 -5.91,-2.05 -2.11,-0.03 -5.02,0.76 -5.82,2.07 0,0 4.24,1.02 2.2,3.85 -1.47,2.04 -3.51,1 -5.24,0.41 -0.58,3.66 -0.05,3.96 0.5,6.97 -0.67,0.5 -3.77,2.29 -4.4,2.29zm-1 8.65c0.5,-2.12 4.76,-4.42 7.73,-5.32 3.61,-1.09 7.93,-1.49 12.03,-1.22 -0.19,1.06 -1,3.63 -1.62,4.2 -1.63,5.59 -3.91,4.74 -6.41,8.02 -6.85,9.02 -3.25,10.77 -4.51,12.73 -0.52,0.81 -2.72,1.76 -4.46,6.1 -1.51,3.75 -1.68,8.03 -0.86,12 -1.12,-0.55 -1.27,-1.03 -1.79,-2.04 -0.62,-0.23 -2.24,-2.88 -2.77,-3.68 -0.97,-1.48 -1.6,-2.59 -2.44,-4.25 -5.41,-10.82 -5.78,-22.28 -3.47,-34.21 1.42,-7.36 0.94,-4.16 -1.14,-10.34 -1.4,-4.14 -1.7,-6.94 -0.74,-11.38l3.82 -16.24c0.51,-2.46 0.63,-4.16 1.87,-4.63 1.6,-1 6.66,-2.54 8.85,-3.18 3.18,-0.94 6.25,-1.6 9.56,-2.33 2.08,-0.22 4.53,-0.81 6.63,-0.99 17.31,-1.53 31.04,-0.97 48.17,3.87 12.92,3.64 28.98,10.92 39.39,19.56l0.79 0.94c0.49,0.56 0.65,4.61 0.7,5.6 0.41,7.55 3.17,30.3 5.09,36.84 0.55,-0.8 0.34,-1.55 0.78,-3.65 0.22,-1.08 0.26,-2.79 0.92,-3.46 -0.04,-3.24 3.88,-10.77 8.19,-12.91 8.85,-4.4 20.12,8.25 12.34,22.38 -1.86,3.38 -6.39,9.15 -10.89,9.74 -0.58,-0.5 -0.23,0.01 -0.53,-0.74 -0.08,-0.21 -0.1,-0.63 -0.12,-0.86 -0.05,-0.76 -0.06,-1.23 -0.18,-2.02 -0.15,-1.01 -0.14,-2.64 -0.72,-3.27 -0.31,0.52 -1.03,3.05 -1.29,3.75 -2.58,6.9 -9.61,18.69 -15.44,20.89 -0.46,1.17 -7.11,4.58 -9.07,5.58 -3.11,1.6 -6.92,3.28 -10.36,4.57 -1.42,0.53 -4.53,1.32 -5.23,2.23 -1.06,1.37 -1.84,3.06 -2.93,4.54 -3.9,5.28 -5.83,7.74 -10.37,12.03 -6.07,5.74 -16.43,11.54 -25.17,12.1 -3.45,0.22 -10.32,0.17 -12.92,-1.4 -3.47,-0.75 -7.66,-3.98 -9.28,-6.1 -5.15,-6.73 -6.25,-12.71 -9.55,-20.32 -1.82,-4.19 -5.11,-9.17 -5.29,-9.62 1.92,0.14 4.39,1.27 5.87,2.08 4.2,2.29 4.23,3.3 6.74,9.23 0.4,0.93 1.68,4.83 2.41,5.35 1.5,0.89 10.86,1.06 13.31,1.11 25.84,0.51 27.48,-11.01 30.27,-13.11 0.1,-1.01 1.99,-4.72 2.57,-6.09 0.97,-2.32 1.25,-4.28 2.65,-6.11 1.17,-1.52 2.8,-3.48 4.17,-4.58l4.98 -3.62c-0.52,-6.59 -5.96,-15.57 -12.58,-18.44 -5.23,-2.26 -1.34,0.45 -4.59,-3.11 -4.63,-5.08 -13.69,-3.31 -15.39,1.73 2.13,-0.61 3.32,-1.62 6.16,-0.76 7.69,2.33 5.03,12.54 1.4,13.02 -0.26,0.3 -0.1,0.17 -0.49,0.43 -1.05,0.72 -3.43,0.81 -4.63,0.81 0.47,-0.9 0.31,-0.45 1.14,-1.21 0.2,-0.18 0.75,-0.85 0.9,-1.16 0.5,-1.05 0.38,-1.69 -0.21,-2.53l-0.53 -0.66c-6.03,0.69 -5.74,1.99 -11.05,6.87 -6.38,5.86 -11.46,2.71 -13.32,2.55 -1.72,0.57 -3.52,4.32 -6.58,1.61 -2.46,-2.18 -0.22,-4.98 0.88,-6.7l0.24 -0.25c-1.36,-0.67 -1.98,-2.82 -4.28,-2.79 -0.39,1.79 -1.33,-0.17 0.28,4.22 -7.77,-3.05 -2.95,-13.52 0.32,-14.09 0.8,-1.07 1.66,-0.68 2.51,-1.69 0.29,-0.34 0.5,-0.85 0.76,-1.29 0.45,-0.75 0.2,-0.54 0.9,-1.03 0.04,-1.2 3.53,-8.22 4.14,-14.96 1.1,-12.08 -1.68,-13.95 -2.06,-16.77 -1.91,-1.32 -0.84,-2.69 -4.98,-4.14 -2.49,-0.87 -5.11,-1.09 -7.88,-0.77 -9.87,1.14 -16.11,10.34 -15.72,20.41 0.25,6.45 1.82,7.87 1.89,11.85 0.02,1.31 0.19,2.73 0.8,3.58 0.83,-1.13 0.51,-1.74 1.69,-2.52zm116.32 -64.8l5.62 5.25c2.31,2.22 15.31,15.67 15.47,17.55 -0.27,1.02 -1.37,2.79 -1.86,3.87 -0.58,1.28 -1.06,2.43 -1.61,3.79 -1.16,2.86 -1.84,5.45 -2.81,8.27l-6.86 -6.98c-0.82,-0.78 -1.73,-1.34 -2.33,-2.42l-11.63 -9.12c-24.56,-16.59 -49.57,-23.7 -80.1,-22.89 -7.38,0.2 -19.24,2.2 -26.26,4.63 -1.76,0.61 -6.3,2.46 -7.76,2.69 0.43,-1.8 2.4,-5.72 3.26,-7.46 3.85,-7.8 6.17,-12.49 11.28,-19.87 1.45,-2.1 2.88,-4.1 4.52,-6.03 2.6,-3.05 1.62,-2.11 7.58,-2.61 8.54,-0.72 21.05,0.21 29.49,1.65 13.68,2.34 26.96,6.46 39.04,12.97 2.07,1.12 12.23,6.75 12.51,7.74 2.15,0.75 6.23,4.61 7.43,4.87 2.39,0.08 1.13,-1.65 3.07,-3 1.89,-1.31 3.53,-0.06 4.24,1.06 -0.52,1.81 -2.26,1.36 -2.42,3.37 2.52,-0.14 1.6,-1.64 3.11,-2.12 1.34,1.65 -1.45,3.6 -3,4.78zm-223.1 51.23c0.17,-1.46 3.23,-7.59 4.04,-9.24 8.35,-17.14 21.43,-35.28 35.39,-48.8l17.37 -15.08c4.51,-3.58 9.92,-7.14 15.28,-10.46 10.11,-6.26 7.6,-4.91 11.98,-1.58 7.18,5.46 12.36,7.54 21.52,10.64 -0.26,0.89 -2.2,3.62 -2.85,4.6 -4.5,6.74 -9.98,17.02 -12.78,24.55 -1.35,3.62 -3.22,7.27 -1.67,11.61 0.92,2.58 0.45,3.43 -0.09,6.19 -1.72,8.81 -3.69,8.94 -2.32,18.61 0.39,2.74 3.17,10.77 3.04,11.92 -0.49,4.34 -1.33,8.89 -1.33,13.41 -0.01,9.83 1.71,18.94 5.7,26.75 2.73,5.33 5.85,9.23 9.25,13.67 0.57,0.74 1.15,1.44 1.69,2.17 0.56,0.75 1.25,1.22 1.37,2.23 -1.3,0.56 -2.7,1 -4.05,1.59 -1.2,0.51 -2.62,1.18 -3.88,1.79 -13.52,6.54 -15.1,11.27 -24.23,21.07 -0.91,0.98 -1.45,1.66 -2.68,2.98 -2.2,2.38 -11.85,13.37 -13.48,14.69 -1.18,-2.25 -2.4,-6.51 -3.45,-9.15l-9.02 -22.39c-0.36,-0.89 -1.33,-3.68 -1.76,-4.35 -1.86,-0.25 -3.15,-0.02 -4.9,0.2 -1.43,0.18 -3.29,0.67 -4.43,0.72 -0.31,-0.77 -0.68,-1.27 -0.66,-2.27 2.76,-1.83 5.92,-3.73 9.39,-5.23 2.03,-0.88 3.35,-1.14 4.66,-2.55 1.24,-1.34 1.87,-2.94 1.86,-5.35 -0.01,-4.44 -2.14,-9.41 -3.39,-13.35l-4.28 -12.4c1.47,-1.57 2.62,-2.7 2.72,-5.92 0.07,-2.32 -0.4,-5.46 -1.69,-7.01 -0.84,-1.02 -7.88,-6.53 -9.56,-7.95 -1.59,-1.35 -3.11,-2.51 -4.82,-3.93 -1.38,-1.15 -1.17,-0.85 -3.19,-1.2 -6.11,-1.07 -12.78,-2.84 -19.05,-2.85 -5.04,-0 -3.77,1.04 -5.71,1.67zm143.11 -150.87c0.39,-2.47 5,-8.04 6.49,-9.66 15.32,-16.6 40.57,-19.25 61.83,-13.6 14.95,3.97 31.25,11.79 42.48,22.11 11.83,10.87 20.59,23.28 24.12,40.29 1.03,4.94 1.47,9.54 1.45,14.82 -0.01,3.04 -0.45,12.12 -1.38,14.42l-0.08 1.3c0.76,-0.61 0.85,-1 1.47,-1.96 2.14,-3.32 3.9,-6.59 5.32,-10.38 0.56,-1.5 0.91,-3.28 1.53,-4.64 1.13,-0.04 1.79,0.56 2.74,1.09 1.23,0.69 1.78,0.73 2.37,1.59 0.64,0.11 0.09,-0.1 0.85,0.34 0.25,0.14 0.46,0.32 0.76,0.53 17.18,11.97 20.99,31.7 11.2,50.64 -7.35,14.21 -23.82,29.51 -47.64,25.7 -0.18,-0.87 0.58,-1.86 1.03,-2.51 2.84,-0.33 5.17,-0.11 8.13,-0.65 2.42,-0.45 4.41,-1.06 6.5,-1.99 5.96,-2.65 8.69,-6.89 9.68,-7.31 0.58,-1.73 2.85,-3.87 3.66,-7.28 -1,0.41 -2.7,1.6 -3.8,2.26 -1.03,0.62 -2.46,1.37 -3.75,1.92 -5.98,2.57 -12.38,3.73 -19.09,3.18 -4.72,-0.39 -3.42,-0.08 -6.56,-4.78 -3.17,-4.75 -6.5,-8.75 -9.85,-12.81 -1.64,-1.99 -3.66,-4.04 -5.41,-5.92 -0.98,-1.06 -1.79,-1.83 -2.86,-2.8 -0.9,-0.82 -2.33,-1.85 -2.94,-2.87 -0.97,-0.51 -5.64,-4.76 -7.25,-5.99 -2.5,-1.91 -4.86,-3.64 -7.62,-5.51 -5.17,-3.5 -10.71,-6.74 -16.85,-9.67 -2.34,-1.12 -7.48,-3.08 -9.03,-4.37 -7.21,-6.01 -14.51,-17.91 -8.99,-27.23 -0.64,-0.81 0.23,-0.32 -0.62,-0.25 -1.12,0.1 -5.71,4.15 -6.88,8.55 -1.64,6.18 0.77,10.25 1.62,14.17 -2.52,-0.32 -5.98,-1.43 -8.73,-2.05 -2.92,-0.66 -5.83,-1.19 -8.81,-1.68 -6.66,-1.09 -12.59,-1.45 -19.43,-1.83 -5.17,-0.29 -10.66,-5.73 -12.87,-8.16 -3.08,-3.38 -4.92,-8.91 -4.72,-13.91 0.12,-2.92 0.32,-2.04 -0.42,-2.39 -0.11,0.67 -1.16,1.77 -1.64,2.56 -7.59,12.52 1.55,20.42 2.06,22.1 -1.07,-0.06 -3.82,-1.06 -4.36,-1.55 -2.84,-0.59 -7.52,-3.57 -9.2,-5 -2.62,-2.24 -4.53,-4.15 -6.56,-7.34 -4.22,-6.62 -5.19,-13.82 -4.23,-23.08 -1.54,1.16 -3.97,5.88 -4.92,8.27 -1.47,3.67 -2,7.12 -1.78,11.58 1.32,7.05 3.38,11.92 8.54,16.96 3.35,3.27 6.88,5.78 11.37,7.94 1.14,0.55 3.27,1.25 4.19,1.8 -3.74,1.45 -14.65,-3.15 -17.34,-4.87 -5.09,-3.24 -7.98,-6.34 -11.33,-11.34 -6.47,-9.67 -7.84,-25.01 -3.75,-37.34 7.24,-21.84 28.96,-34.8 58.66,-31.1 1.19,0.09 3.23,0.2 4.13,0.79 -0.07,1.02 -0.89,2.85 -1.2,4.08 -0.97,3.82 -1.13,5.78 -1.08,9.82l0.12 4.02c0.38,1.34 -0.27,0.49 0.65,0.98zm-74.65 46.23c-0.72,0.57 -2.33,1.37 -3.21,1.88 -5.14,3.01 -11.67,7.16 -16.39,10.65 -25.82,19.04 -44.82,40.39 -60.19,69.05 -1.02,1.91 -2.84,5.27 -3.51,7.31 -1.92,-0.36 -4.36,-3.15 -9.84,-3.1 -7.44,0.07 -14.66,5.3 -12.45,12.93 1.07,3.67 4.53,5.73 5.51,7.63 -1.73,-0.5 -5.73,-3.84 -12.11,-2.32 -5.51,1.31 -10.37,6.79 -10.79,11.58 -0.26,2.97 0.56,3.79 2.52,4.93 2.95,1.7 6.72,4.68 8.49,6.63 -0.69,0.6 -0.54,0.27 -2.01,0.56 -0.63,0.12 -1.38,0.36 -2.01,0.58 -7.9,2.74 -9.96,12.55 -4.59,15.52 2.78,1.54 4.21,2.27 6.57,3.99 4.28,3.1 7.52,6.63 10.87,9.99 1.37,1.37 0.8,2.05 0.65,4.22 -1.96,29.86 3.35,59.39 13.1,85.53 3.67,9.83 8.64,19.64 13.55,28.16 6.44,11.17 13.62,20.91 21.77,30.49 10.83,12.72 24.91,25.09 38.8,34.57 16.32,11.13 34.77,20.15 56.9,26.78 5.48,1.64 11,2.8 16.77,4.07 5.94,1.31 11.99,1.84 18.06,2.77 3.45,0.53 16.12,1.06 19.89,1.09 6.84,0.04 13.59,-0.52 20.3,-0.96 6.17,-0.4 12.3,-1.65 18.23,-2.6 1.45,-0.23 2.88,-0.54 4.27,-0.86 2.24,-0.5 2.25,-0.88 3.8,0.2 7.07,4.97 25.39,18.5 31.1,21.43 18.81,9.65 24.27,-5.85 21.97,-12.7 -2.21,-6.61 -10.12,-12.14 -15.98,-15.43l-5.73 -3.28c-0.85,-0.59 -0.37,0.05 -0.74,-0.82l12.24 -5.55c8.57,-4.18 14.71,-7.88 22.55,-12.98 3.72,-2.42 7.06,-4.99 10.52,-7.51l4.89 -3.86c2.86,-2.04 12.68,-7.84 16.49,-10.28 7.47,-4.79 14.71,-9.71 20.7,-15.09 5.13,-4.61 7.7,-10.53 8.82,-17.72 0.54,-3.51 -0.08,-5.45 -0.25,-8.63 -0.09,-1.72 4.86,-9.75 5.97,-11.89 21,-40.43 27.63,-89.13 17.71,-134.27 -4.68,-21.29 -9.84,-33.36 -19.17,-52.13 -4.31,-8.68 -11.56,-19.43 -17.35,-26.94 -0.99,-1.28 -3.57,-3.87 -3.59,-5.44 -0.04,-2.88 0.6,-5.52 0.4,-8.78 -0.17,-2.66 -0.53,-5.56 -0.95,-8.12 -2.83,-17.33 -16.12,-33.15 -32.9,-38.71 -0.63,-8.89 -1.26,-13.52 -4.14,-21.36 -2.34,-6.37 -5.42,-11.85 -8.75,-16.74 -14.2,-20.87 -35.21,-35.4 -60.91,-41.04 -14.38,-3.16 -31.82,-3.61 -45.38,1.11 -4.87,1.7 -8.71,3.48 -12.71,6.34 -0.81,0.58 -0.93,0.66 -1.74,1.35 -2.09,1.77 -2.2,0.9 -7.02,-0.39 -22.99,-6.14 -47.78,-3.01 -64.53,12.51 -6.67,6.18 -12.26,14.04 -15.36,23 -3.91,11.29 -4.87,21.11 -2.22,32.94 0.37,1.68 0.9,3.42 1.44,5 0.43,1.25 1.54,3.62 1.66,4.71zm65.41 143.54l-5.7 -5.09c-1.1,1.72 -3.34,4.52 -0.88,6.7 3.06,2.71 4.86,-1.04 6.58,-1.61zm-5.73 3.58c-1.92,-0.71 -0.72,1.67 -3.42,1.87 0.05,-0.9 0.44,-1.03 1.03,-1.66 0.89,-0.94 0.89,-0.47 1.43,-1.6 -1.54,-3.76 -7.5,-0.72 -5.3,3.26 1.09,1.97 3.61,2.76 5.67,0.41 0.66,-0.75 0.93,-1.43 0.59,-2.27zm-13.08 4.34c0.1,-1.66 0.64,-0.88 0.57,-2.6 -1.51,-0.27 -2.64,0.56 -2.64,2.02 -0,0.96 0.37,1.22 0.6,1.8l0.29 1.25c0.57,1.99 1.04,0.05 3,1.86 0.68,0.63 1.39,1.62 2.36,1.72 1.12,-1.05 0.7,-1.47 -0.07,-2.18 -1.5,-1.38 -1.69,-1.03 -1.88,-2.59 0.21,-0.17 0.28,-0.23 0.58,-0.42l1.06 -0.6c0.5,0.84 2.23,2.84 3.67,2.73 0.9,-1.65 0.1,-1.7 -1.04,-2.81 -1.76,-1.71 -0.76,-1.74 -0.78,-4.35 -2.72,0.9 -2.74,4.08 -5.72,4.16zm241.24 36.61c-1.49,0.05 -0.89,-0.03 -1.79,1.16 -0.48,0.63 -0.98,0.85 -1.7,0.53 0.53,-1.51 1.99,-1.48 2.56,-3.19 -2.38,-3.17 -7.2,-0.59 -5.55,3.25 1.37,3.18 6.62,2.67 6.48,-1.76zm1.36 -3.19c0.6,-1.31 1.84,-1.55 2.37,-2.85 -1.16,-2.01 -3.65,-2.29 -5.06,-0.61 -3.15,3.77 3.19,8.61 5.83,3.67 0.53,-1 0.39,-2.65 -0.97,-1.43 -0.8,0.72 -0.79,1.82 -2.18,1.22zm-139.57 -135.57l1.1 1.11c1.31,1 2.44,2.19 3.9,2.99 1.55,-1.18 4.34,-3.13 3,-4.78 -1.52,0.48 -0.6,1.97 -3.11,2.12 0.16,-2.01 1.9,-1.56 2.42,-3.37 -0.7,-1.13 -2.35,-2.37 -4.24,-1.06 -1.94,1.34 -0.67,3.08 -3.07,3z"/>
    <path class="fil1" d="M306.9 188.06c-0.7,1.2 -2.17,3.71 -2.6,4.82 0.64,1.09 1.68,1.88 2.64,3.25 0.82,1.18 1.55,2.4 2.19,3.73 4.25,8.82 3.47,21.34 -0.92,29.15 -2.76,4.9 -6.99,8.81 -12.29,11.39 -1.25,0.61 -2.85,1.26 -4.21,1.74 -1.11,0.39 -3.72,0.62 -4.36,1.55 -0.53,0.77 -1.11,3.41 -2.97,6.03 -0.49,0.7 -0.96,1 -1.19,1.8l9.91 2.24c3.12,0.78 6.42,1.65 9.39,2.68 6.74,2.35 11.89,4.27 16.24,8.23 7.71,7.03 27.08,31.19 33.56,39.56 3.5,4.52 7.27,9.05 10.75,13.72l21.3 27.59c0.8,-0.82 3.89,-8.09 4.62,-9.77 1.45,-3.34 2.85,-6.99 4.07,-10.6 9.13,-27 11,-47.8 9.2,-76.94 -0.9,-14.56 -6.08,-34.02 -11.22,-47.34 -2.62,-6.79 -5.83,-13.96 -9.14,-19.95 -1.82,-3.29 -3.53,-6.14 -5.37,-9.3l-5.84 -8.78c-1.47,1.28 -6.4,13.74 -24.14,22.34 -18.9,9.17 -36.16,2.62 -39.63,2.87z"/>
    <path class="fil2" d="M199.91 44.43c-0.23,0.63 -0.03,0.09 -0.24,0.52 -0.96,2.02 -0.98,4.61 -1.03,6.83 -0.22,9.38 3.34,17.72 8.41,25.14 2.65,3.88 9.23,11.72 12.12,13.08 0.88,-3.24 1.37,-4.24 3.05,-6.73 1.01,-1.5 3.26,-3.3 5.37,-4.18 2.47,-1.03 5.32,-1.5 8.19,-1.51 1.88,-0 6.83,0.35 8.19,1.22 -0.67,0.74 -2.1,1.09 -2.99,1.6 -1.57,0.92 -1.25,1.08 -2.02,1.85l-0.34 0.28c-0.03,-0.05 -0.12,0.1 -0.19,0.13 -5.51,9.32 1.78,21.22 8.99,27.23 1.54,1.29 6.69,3.25 9.03,4.37 6.14,2.94 11.67,6.17 16.85,9.67 2.76,1.87 5.12,3.6 7.62,5.51 1.61,1.23 6.29,5.48 7.25,5.99 3.98,0.45 7.35,2.83 15.84,2.75 7.88,-0.08 14.31,-3.63 19.71,-8.25l2.38 -2.26c3.13,-3.14 5.74,-6.66 7.72,-10.81 1.04,-2.17 0.47,-1.75 0.61,-2.8 0,-0.01 -0.1,-0.58 0.48,-1.28 0.93,-2.3 1.37,-11.38 1.38,-14.42 0.02,-5.28 -0.43,-9.87 -1.45,-14.82 -3.53,-17.01 -12.29,-29.42 -24.12,-40.29 -11.23,-10.31 -27.53,-18.14 -42.48,-22.11 -21.27,-5.65 -46.52,-3 -61.83,13.6 -1.49,1.62 -6.1,7.18 -6.49,9.66z"/>
    <path class="fil2" d="M295.81 333.58c1.02,0.03 0.34,0.25 1.86,-1.31 1.23,-1.26 3.65,-3.55 5.13,-4.29 -0.15,0.86 -0.42,1.32 -0.55,2.17 -0.15,0.93 -0.02,1.63 -0.54,2.28 -0.53,5.35 -0.95,10.43 1.2,15.26 1.1,2.46 2.23,3.71 3.76,5.26 1.01,1.02 3.49,3.5 5.01,3.88 0.78,-0.2 0.24,0.32 0.71,-2.11 0.88,-4.5 5.43,-7.58 9.77,-8.76 6.32,-1.72 12.78,-0.9 18.67,0.89 5.49,1.67 10.44,4.35 14.27,7.09 2.48,1.77 9.34,8.21 9.92,11.72 -1.42,-0.34 -1.3,-0.35 -2.06,-1.02 -4.17,-2 -16.97,-3.85 -22.4,-3.88 -16.14,-0.1 -27.22,5.3 -41.83,11.21 -2.59,1.05 -17.4,7.38 -18.36,8.37 0.18,0.45 1.9,2.59 2.26,3.08 0.93,1.25 1.49,2.07 2.33,3.34 1.46,2.2 2.81,4.71 4.06,7.27 2.57,5.24 4.36,10.45 5.98,16.44l0.76 0.5c3.25,-1.2 6.75,-2.9 10.13,-4.29 12.63,-5.18 28.17,-11.77 40.12,-17.82 6.58,-3.33 12.45,-6.68 18.46,-10.63l8.55 -6.15c-0.82,9.86 -11.34,18.96 -17.68,23.54 -4.36,3.15 -10.52,6.94 -15.19,9.79 -6.81,4.16 -13.63,8.22 -20.65,12.31 -2.1,1.22 -19.24,11.24 -21.16,11.92l-0.12 4.7c0.13,0.39 -0.19,0.55 1.41,-0.45 0.65,-0.4 1.06,-0.6 1.68,-0.9 5.15,-2.5 17.8,-9.91 23.17,-12.87 8.84,-4.88 17.53,-10.05 25.94,-15.25 8.84,-5.47 17.14,-10.76 24.29,-16.9 3.49,-2.99 5.92,-7.45 6.73,-13.86 1.28,-10.05 -5.71,-22.54 -11.46,-29.65 -1.6,-1.97 -3.07,-3.88 -4.71,-5.59 -3.92,-4.1 -18.6,-23.73 -22.62,-28.87 -5.19,-6.62 -10.44,-13.95 -15.67,-20.37 -8.05,-9.89 -12.22,-17.16 -25.56,-20.99 -1.3,1.51 -4.05,10.9 -4.88,13.6 -2.56,8.29 -7.28,28.9 -8.84,37.98 -0.39,2.25 -1.44,6.14 -1.44,8.1l7.12 3.93c0.95,0.59 1.62,1.18 2.43,1.34z"/>
    <path class="fil0" d="M224.96 349.42c-11.23,-0.01 -21.81,-1.97 -31.38,-5.43 -9.44,-3.41 -12.99,-5.79 -20.76,-10.4 -1.07,-0.63 -1.72,-1.33 -2.67,-1.91 -0.46,-9.56 -0.82,-18.97 -0.83,-28.6 -0.01,-6.42 0.45,-24.62 1.2,-30.47 0.31,-2.43 0.33,-3.24 -0.52,-4.67 -0.61,-1.03 -1.22,-2.66 -2.18,-3.16 -0.74,1.13 -2.65,16.27 -2.81,19.5 -0.08,1.64 -0.46,5 -0.72,6.74 -0.79,5.39 -1.33,23.32 -1.33,29.31 0,2.44 1.12,20.25 1,20.49 -3.36,-2.14 -4.57,-12.43 -5.34,-13.54 -0.87,0.51 -0.3,-0.01 -1.17,1.99l-1.92 4.26c-0.32,0.66 -0.68,1.31 -0.96,2.14 -0.67,1.93 -3.22,7.28 -3.22,9.13 3.51,1.94 26.77,13.19 27.92,14.31 2.24,2.21 3.4,9.99 3.45,13.49 0.14,9.98 -2.26,7.09 3.96,11.03 1.42,0.9 2.73,1.75 4.26,2.7l8.33 5.48c1.72,-1.68 1.52,-1.81 2.99,-4.11 0.93,-1.45 2.2,-2.87 3.21,-4.24l3.28 -3.93c1.36,-1.25 7.83,-1.01 10.33,-1.01 7.33,-0.01 16.55,1.33 23.29,2.98 3.55,0.87 6.94,1.74 10.14,3.01 2.16,0.86 2.88,-0.1 4.76,-1 4.32,-2.08 9.7,-4.21 13.65,-6.18l18.21 -8.06c0.64,-0.26 8.91,-3.55 9.2,-4.12 -0.59,-0.71 -1.26,-0.5 -2.29,-1 -3.42,-1.67 -6.74,-6.34 -7.62,-9.91 -0.3,-1.22 -1.34,-4.29 -1.22,-5.21 1.62,2.75 2.51,3.91 5.13,5.96 0.89,0.69 6.05,3.82 7.38,3.56 0.47,-0.95 -0.25,-1.6 -0.86,-3.15 -1.28,-3.25 -4.35,-8.62 -6.73,-11.28 -0.44,-0.49 -0.63,-0.86 -1.05,-1.29 -1.19,-1.25 -5.02,-4.85 -6.33,-5 -1.47,2.26 -0.6,7.79 -2.06,9.75 -3.83,-2.63 -2.22,-18.16 -1.77,-23.9l0.86 -5.27c0.19,-0.98 0.05,-1.87 0.26,-2.86 1.17,-5.5 3.07,-18.39 4.28,-22.47 0.21,-0.73 0.41,-1.71 0.58,-2.5 0.38,-1.81 0.73,-3.33 1.13,-5.06 0.93,-4.07 2.27,-10.7 3.4,-14.62 0.32,-1.09 1.23,-4.12 1.26,-4.85 -1.17,-0.61 -4.84,-1.81 -6.35,-1.77 -0.8,1.41 -2.96,12.76 -3.32,14.92 -0.41,2.45 -0.8,5.23 -1.39,7.63 -0.62,2.53 -0.79,5.35 -1.31,7.97 -1.01,5.1 -1.78,10.33 -2.61,15.68 -0.38,2.42 -0.82,5.2 -1.3,7.66l-2.27 16.06c-0.37,2.9 -0.77,3.06 -4.44,4.79 -4.21,1.99 -8.41,3.83 -13.01,5.26 -10.01,3.11 -20.27,5.18 -31.66,5.16z"/>
    <path class="fil3" d="M146.95 82.68c-0.22,-4.47 0.31,-7.91 1.78,-11.58 0.96,-2.39 3.38,-7.11 4.92,-8.27 -0.96,9.26 0.02,16.46 4.23,23.08 2.03,3.2 3.94,5.1 6.56,7.34 1.68,1.43 6.36,4.41 9.2,5 -0.04,-0.07 -0.11,-0.25 -0.14,-0.21l-2.97 -2.9c-2.95,-2.69 -5.84,-9.07 -4.54,-13.49 1.47,-5.02 10.29,-10.11 13.62,-10.76 -0.39,1.98 -1.69,3.04 -2.03,4.25 0.74,0.35 0.53,-0.53 0.42,2.39 -0.2,5 1.64,10.53 4.72,13.91 2.22,2.44 7.7,7.88 12.87,8.16 6.84,0.38 12.77,0.74 19.43,1.83 2.98,0.49 5.88,1.02 8.81,1.68 2.75,0.62 6.2,1.73 8.73,2.05 -0.85,-3.92 -3.26,-7.99 -1.62,-14.17 1.17,-4.4 5.75,-8.46 6.88,-8.55 0.84,-0.07 -0.03,-0.56 0.62,0.25 0.07,-0.04 0.16,-0.18 0.19,-0.13l0.34 -0.28c0.77,-0.77 0.45,-0.93 2.02,-1.85 0.88,-0.51 2.32,-0.86 2.99,-1.6 -1.37,-0.88 -6.31,-1.23 -8.19,-1.22 -2.88,0.01 -5.72,0.48 -8.19,1.51 -2.11,0.88 -4.36,2.68 -5.37,4.18 -1.68,2.49 -2.17,3.49 -3.05,6.73 -2.89,-1.37 -9.47,-9.21 -12.12,-13.08 -5.06,-7.42 -8.62,-15.76 -8.41,-25.14 0.05,-2.22 0.07,-4.81 1.03,-6.83 0.21,-0.44 0.02,0.11 0.24,-0.52 -0.92,-0.49 -0.27,0.36 -0.65,-0.98l-0.12 -4.02c-0.05,-4.05 0.11,-6 1.08,-9.82 0.31,-1.23 1.13,-3.06 1.2,-4.08 -0.9,-0.59 -2.94,-0.7 -4.13,-0.79 -0.06,0.63 0.33,0.28 -0.76,0.63 -0.39,0.13 -1.16,0.19 -1.59,0.24 -5.89,0.68 -14.14,2.87 -19.35,5.12 -5.13,2.22 -8.99,4.42 -13.23,7.63 -11.68,8.84 -18.57,22.67 -16.47,38.19 0.38,2.85 0.49,1.11 0.56,4.33 0.02,0.9 -0.01,0.99 0.52,1.8z"/>
    <path class="fil4" d="M285.52 173.41c0.92,0.42 0.19,0.15 0.5,-0.09 -0.67,-5.12 -4.99,-16.49 -7.11,-21 -2.5,-5.35 -6.07,-10.54 -9.78,-14.92 -0.3,-0.36 -0.51,-0.65 -0.79,-0.99l-0.88 -1.29c-0.28,-0.99 -10.44,-6.62 -12.51,-7.74 -12.08,-6.51 -25.36,-10.63 -39.04,-12.97 -8.44,-1.44 -20.95,-2.37 -29.49,-1.65 -5.95,0.5 -4.97,-0.45 -7.58,2.61 -1.65,1.93 -3.07,3.93 -4.52,6.03 -5.11,7.39 -7.43,12.07 -11.28,19.87 -0.86,1.74 -2.84,5.65 -3.26,7.46 1.46,-0.23 6,-2.08 7.76,-2.69 7.02,-2.44 18.87,-4.44 26.26,-4.63 30.53,-0.81 55.54,6.3 80.1,22.89l11.63 9.12z"/>
    <path class="fil4" d="M124.62 380.67c-1.64,-0.29 -4.29,0.67 -6.3,0.83 -5.19,0.42 -14.67,-1.39 -17.39,-4.02 0.13,-1.96 4.71,-8.41 2.29,-22.21 -1.4,-7.98 -10.15,-29.4 -13.38,-38.36l-6.22 -16.42c-0.31,-0.85 -0.26,-1.6 -1.04,-1.94 -0.79,0.05 -5.5,2.22 -6.89,2.77 -8.63,3.38 -15.1,4.5 -24.72,4.95l18.69 42.94c2.13,4.7 4.66,9.25 6.96,13.91 7.74,15.66 24.7,33.76 42.95,22.79 1.77,-1.06 4.91,-3.19 5.91,-4.55l-0.86 -0.68z"/>
    <path class="fil3" d="M334.91 112.81c-0.59,0.7 -0.48,1.27 -0.48,1.28 -0.14,1.04 0.43,0.63 -0.61,2.8 -1.98,4.15 -4.59,7.67 -7.72,10.81l-2.38 2.26c-5.4,4.61 -11.83,8.17 -19.71,8.25 -8.49,0.08 -11.86,-2.3 -15.84,-2.75 0.61,1.01 2.04,2.05 2.94,2.87 1.07,0.97 1.87,1.75 2.86,2.8 1.74,1.88 3.77,3.93 5.41,5.92 3.34,4.05 6.68,8.06 9.85,12.81 3.14,4.7 1.84,4.4 6.56,4.78 6.72,0.55 13.11,-0.61 19.09,-3.18 1.29,-0.55 2.72,-1.31 3.75,-1.92 1.1,-0.66 2.8,-1.85 3.8,-2.26 -0.81,3.42 -3.08,5.55 -3.66,7.28 1.28,-0.63 2.26,-1.66 3.2,-2.46 6.87,-5.81 11.37,-17.43 12.94,-26.45 1.15,-6.63 1.15,-13.76 -0.41,-20.3 -0.74,-3.1 -1.54,-5.55 -2.73,-8.32 -0.58,-1.34 -1.25,-2.51 -1.89,-3.78 -1.13,-2.26 -2.27,-2.87 -1.63,-3.43 -0.59,-0.86 -1.13,-0.9 -2.37,-1.59 -0.95,-0.53 -1.61,-1.14 -2.74,-1.09 -0.62,1.35 -0.97,3.14 -1.53,4.64 -1.41,3.79 -3.18,7.06 -5.32,10.38 -0.62,0.96 -0.71,1.35 -1.47,1.96l0.08 -1.3z"/>
    <path class="fil5" d="M201.97 420.99c0.86,-0.41 0.45,-0.1 0.94,-1.2l1.91 -3.48c0.77,-1.27 2.2,-3.19 3.11,-4.1 1.97,-1.99 4.43,-3.2 7.5,-3.28 1.14,-0.03 2.34,-0.08 3.28,0.49 -0.04,0.41 0.02,0.51 -0.15,0.98 -0.24,0.66 -0.17,0.44 -0.54,0.82 -0.96,1.13 -4.1,10.95 -4.79,13.24 -0.56,1.87 -1.67,5.71 -0.78,7.51 0.68,1.37 3.96,3.1 6.22,3.06l0.6 -0.13c0.93,-4.51 3.27,-10.62 5.06,-14.52 1.14,-2.48 2.13,-4.31 4.54,-5.26 0.76,-0.3 8.19,-2.06 8.7,-0.55 0,2.02 0.1,0.31 -0.5,1.03 -0.79,1.27 -2.96,9.37 -3.52,11.41 -1.02,3.72 -2.53,8.93 -2.49,12.99 5.56,0.12 8.1,-7.57 10.25,-11.66 0.43,-0.82 0.79,-1.6 1.18,-2.43 1.43,-3.04 0.24,-2.28 7.06,-3.03 -0.44,2.61 -1.39,5.04 -2.42,6.9 -0.54,0.98 -1.08,1.8 -1.66,2.72 -0.55,0.86 -1.62,1.81 -1.66,2.97 1.88,0.54 1.88,-0.2 3.8,-2.11 1.16,-1.15 1.96,-2.23 2.9,-3.54 0.99,-1.38 4.71,-6.46 4.75,-8.24 -0.1,-2.58 0.04,-4.47 -0.31,-7.16 -0.22,-1.66 -1.22,-4.98 -1.08,-6.22 4.84,-0.75 7.35,-0.04 11.93,-3.51 0.93,-0.7 2.45,-1.69 2.41,-2.49 -0.34,-0.82 -10.94,-5.36 -11.61,-5.64 -4.15,-1.68 -8.48,-3.29 -12.83,-4.69 -7.6,-2.45 -20.93,-6.12 -29.67,-5.4 -3.89,7.78 -9.41,16.46 -12.92,24.91 -1.72,4.14 -1.57,6.25 0.78,9.61z"/>
    <path class="fil0" d="M141.79 399.37l-0.12 8.96c-0.19,2.19 0.22,17.8 0.76,18.71 1.14,1.9 20.93,9.01 24.14,10.11 8.09,2.77 12.8,3.52 20.34,5.44 1.53,0.39 5.93,1.28 7.41,1.31 -0.02,-1.25 -0.2,-0.92 -0.9,-1.91l-3.51 -5.52c-1.55,-2.59 -3.25,-4.97 -3.33,-8.77 -0.06,-3.11 1.31,-7.08 2.7,-9.15 1.84,-2.74 1.3,-0.59 1.38,-4.51 0.04,-2.01 1.29,-3.18 1.15,-5.27 -3.84,-2.57 -8.09,-5.28 -12.25,-8.02 -8.08,-5.32 -5.76,-4.8 -9.56,-2.52 -3.01,1.81 -7.37,3.8 -10.9,4.53 -1.08,0.23 -3.53,0.46 -4.7,0.55 -2.36,0.2 -2.43,-0.52 -3.58,-1.64l-8.59 -6.72c-0.75,0.04 -0.46,3.45 -0.46,4.43z"/>
    <path class="fil6" d="M27.08 186.97l-0.09 1.02c3.54,2.25 10.19,9.53 12.57,13.93 2.41,4.46 4.3,9.93 4.82,15.25 0.2,2.05 0.12,4.19 0.36,6.15 1.71,0.1 1.7,-0.63 3.42,-0.68 -0.29,3.53 -1.03,4.42 -3.35,5.86 -1.37,0.85 -1.03,1.3 -1.28,3.09 -0.77,5.68 -4.48,10.9 -9.16,13 -0.08,2.07 4.86,15.03 5.96,18.11 1.71,4.78 3.39,7.85 7.66,10.09 2.97,1.55 2.2,0.63 5.07,0.89 3.55,0.88 16.41,-5.39 13.31,-19.51 -0.5,-2.27 -2.55,-6.82 -3.86,-7.47 -1.14,-0.47 -0.02,0.06 -0.62,-0.37l-1.18 -0.93c-0.76,-0.42 -1.19,-0.43 -1.79,-1.02 1.54,-1.37 5.23,-1.76 7.54,-1.16 3.02,0.79 4.26,2.83 5.54,3.54l3.35 -4.19c-1.3,-0.99 -2.84,-1.29 -4.24,-2.45 -1.27,-1.05 -2.21,-1.92 -3.33,-3.36 -2.77,-3.56 -3.06,-5.82 -4.5,-8.84 -2.19,-0.2 -3.68,-0.25 -5.47,-2.03 -0.04,-0.03 -0.09,-0.1 -0.12,-0.13 -0.03,-0.03 -0.09,-0.11 -0.12,-0.14 -0.02,-0.03 -0.09,-0.06 -0.11,-0.14 -0.02,-0.08 -0.08,-0.09 -0.11,-0.15 0.32,-0.27 0.58,-0.44 0.88,-0.65l0.84 -0.54c1.23,-0.39 3.6,-2.99 4.2,-4.61 -0.56,-0.59 -0.03,-0.41 -0.76,-0.13 -0.08,0.03 -0.7,0.53 -0.76,0.57 -6.77,5.18 -12.98,1.65 -11.3,-0.6 1.24,-9.42 -2.13,-17.79 -5.8,-24.6 -2.8,-5.2 -6.29,-10.63 -12.55,-10.63 -2.21,-0 -4.86,0.99 -5.04,2.85z"/>
    <path class="fil3" d="M82.58 298.56c0.78,0.34 0.73,1.09 1.04,1.94l6.22 16.42c3.23,8.95 11.98,30.38 13.38,38.36 2.41,13.8 -2.16,20.25 -2.29,22.21 2.72,2.63 12.2,4.44 17.39,4.02 2.01,-0.16 4.66,-1.12 6.3,-0.83l-1.74 -1.52c-0.67,-0.53 -1.09,-0.83 -1.74,-1.35 -1.19,-0.93 -2.21,-1.77 -3.45,-2.73 -2.23,-1.74 -4.79,-3.71 -7.03,-5.27 0.09,-4.75 5.63,-17.28 7.78,-20.56 2.79,-4.25 3.49,-2.62 0.98,-10.16 -2.03,-6.1 -17.08,-45.27 -19.86,-50.92 -0.75,0.04 -6.49,4.26 -8.27,5.35l-8.72 5.04z"/>
    <path class="fil7" d="M39.72 230.03c0.15,1.6 0.01,2.61 -0.83,3.88 -0.43,0.64 -0.56,0.87 -1.05,1.51 -0.58,0.76 -0.44,0.81 -1.35,1.12 -0.44,-0.79 -0.11,-0.02 -0.33,-0.89l-0.93 -4.94c-0.79,-3.4 -2.37,-6.88 -4.1,-9.81 -2.38,-4.05 -6.1,-7.97 -9.71,-10.63 -1.9,-1.4 -7.13,-3.67 -7.19,-6.26 -1.58,1.22 -0.78,3.58 0.4,4.8 2.75,2.81 5.85,3.84 10.94,10.17 3.62,4.5 6.4,11.38 7.13,17.36l0.17 2.35c-0.33,1.85 0.7,-1.47 -0.25,0.65 -0.03,0.05 -0.07,0.14 -0.12,0.2 -0.24,2.29 0.12,2.24 -1.11,3.83 -1.35,-0.33 -2.44,-2.3 -4.95,-4.38 -1.62,-1.35 -3.59,-2.79 -5.52,-4.01 -2.85,-1.8 -10.29,-5.52 -11.11,-7.92 -0.05,0.06 -0.11,0.09 -0.12,0.21 -0.01,0.12 -0.09,0.15 -0.1,0.21 -0.34,1.22 0.31,1.83 1.95,3.24 1.09,0.93 2.31,1.75 3.53,2.65 3.79,2.8 9.86,7.46 12.9,11.3 3.53,4.46 7.03,19.67 10.65,25.66 1.33,2.2 2.23,3.42 4.23,4.78 2.85,1.94 1.76,-1.36 5.46,9.97 4.94,0.66 16.28,-1.56 20.63,-3.09 3.09,-1.09 5.65,-2.14 8.26,-3.58 1.97,-1.09 6.04,-3.76 6.87,-5.18 -0.22,-0.95 -2.99,-6.92 -3.55,-7.5 -1.52,0.49 -2.58,1.98 -3.84,2.51 0.18,-1.14 0.88,-1.85 1.31,-2.77 -0.63,-0.29 -0.54,-0.44 -0.1,-2.84 1.27,-6.99 8.32,-11.26 11.07,-14.13 -0.57,-0.55 -1.75,-0.76 -2.58,-1.22 -0.42,-0.24 -0.97,-0.57 -1.21,-0.82l-0.57 -0.77c-0.05,-0.06 -0.11,-0.12 -0.16,-0.18 -0.06,-0.06 -0.14,-0.13 -0.19,-0.18 -0.05,-0.05 -0.12,-0.13 -0.2,-0.18 -0.23,0.74 0.3,0.51 -0.68,0.25l-2.18 -1.71c-2.84,-3.04 -0.66,-3.8 -3.29,-4.67 -10.49,-3.5 -12.03,-13.44 -13.36,-15.69l-4.08 1.01c-1.33,0.24 -1.12,0.06 -1.38,-0.21l-0.84 0.54c-0.31,0.22 -0.56,0.39 -0.88,0.65 0.03,0.05 0.09,0.07 0.11,0.15 0.02,0.08 0.09,0.12 0.11,0.14 0.02,0.03 0.09,0.11 0.12,0.14 0.03,0.03 0.09,0.1 0.12,0.13 1.79,1.78 3.28,1.84 5.47,2.03 1.44,3.02 1.73,5.28 4.5,8.84 1.12,1.44 2.06,2.31 3.33,3.36 1.4,1.16 2.94,1.46 4.24,2.45l-3.35 4.19c-1.28,-0.71 -2.52,-2.75 -5.54,-3.54 -2.31,-0.61 -6,-0.21 -7.54,1.16 0.61,0.59 1.04,0.6 1.79,1.02l1.18 0.93c0.59,0.43 -0.52,-0.1 0.62,0.37 0.29,-0.73 -0.29,-0.83 2,1.06 13.16,10.87 4.32,35.67 -10.6,28.11 -1.06,-0.54 -1.7,-1.15 -2.62,-1.5 0.06,-0.05 0.18,-0.18 0.22,-0.12 0.04,0.06 0.16,-0.08 0.22,-0.11l1.33 -0.47c-2.88,-0.27 -2.1,0.66 -5.07,-0.89 -4.27,-2.23 -5.95,-5.3 -7.66,-10.09 -1.1,-3.08 -6.04,-16.04 -5.96,-18.11 4.68,-2.1 8.38,-7.31 9.16,-13 0.24,-1.8 -0.09,-2.24 1.28,-3.09 2.31,-1.44 3.06,-2.32 3.35,-5.86 -1.72,0.05 -1.71,0.77 -3.42,0.68 -0.24,-1.96 -0.16,-4.09 -0.36,-6.15 -0.52,-5.31 -2.4,-10.79 -4.82,-15.25 -2.38,-4.4 -9.03,-11.67 -12.57,-13.93l0.09 -1.02c-0.38,0.39 -0.48,0.69 -0.48,1.53 -0.02,2.63 2.91,5.23 5.14,8.36 5.94,8.38 13.82,24.82 8.48,34.51 -0,-0.79 0,-0.86 -0.49,-1.35z"/>
    <path class="fil3" d="M125.52 310.3c0.96,2.59 2.36,9.3 2.32,12.25 -1.44,-2.44 -2.13,-4.55 -3.8,-6.6 -1.09,-1.33 -3.73,-4.36 -5.67,-4.95 0.47,1.99 1.62,4.75 2.3,6.79l4.49 13.51c0.41,1.27 0.76,2.23 1.09,3.55 0.3,1.2 0.33,2.75 0.87,3.8 0.89,-0.41 3.79,-3.8 4.63,-3.99 1.06,0.18 4.69,2.34 5.85,3 1.41,0.81 4.35,2.55 5.74,3 3.15,-4.83 -1.88,-6.93 0.65,-17.34 1.06,-4.36 4.81,-11.51 7.87,-13.03 -0.82,2.47 -1.8,3.07 -2.52,7.26 -0.42,2.45 -0.36,7.21 0.69,9.23l0.89 -0.92c1.93,-3.23 3.13,-5.43 5.79,-8.37 0.95,-1.05 0.97,-1.16 0.87,-3.07 -0.08,-1.39 -0.1,-2.74 -0.1,-4.12 -0.02,-6.7 0.53,-32.92 2.23,-38.77l-2.71 3.77c-2.05,3.26 -3.81,8.39 -4.18,12.33 -0.04,0.39 -0.05,1.03 -0.1,1.38 -0.45,2.93 -4.02,0.53 -4.05,0.51 -0.92,-0.86 -0.89,-2.37 -0.94,-3.95 -0.95,0.31 -0.93,0.74 -1.58,1.54l-12.45 13.8c-1.17,1.61 -7.34,9.03 -8.19,9.4z"/>
    <path class="fil8" d="M295.01 410.45c0.62,3.78 1.56,7.35 2.13,11.51 0.67,4.88 0.61,6.55 0.78,10.91 0.01,0.13 0.03,0.63 0.05,0.73l0.17 0.57c0.01,0.04 0.05,0.11 0.08,0.16l0.12 -4.7c1.92,-0.68 19.06,-10.7 21.16,-11.92 7.02,-4.09 13.85,-8.15 20.65,-12.31 4.67,-2.85 10.83,-6.64 15.19,-9.79 6.34,-4.58 16.86,-13.69 17.68,-23.54l-8.55 6.15c-6,3.95 -11.87,7.29 -18.46,10.63 -11.95,6.05 -27.49,12.64 -40.12,17.82 -3.38,1.39 -6.88,3.09 -10.13,4.29l-0.76 -0.5z"/>
    <path class="fil9" d="M123.82 368.48c-0.61,-1.96 1.16,-4.25 3.16,-3.72l13.05 8.85c2.04,1.43 16.65,11.05 16.99,12.16 0.7,2.3 -0.93,4.57 -3.28,3.77l-21.58 -14.76c-1.55,-1.08 -7.95,-5.03 -8.34,-6.3zm4.15 -9.27c-0.55,-2.16 1.5,-4.49 3.7,-3.81 0.72,0.22 3.92,2.39 4.8,2.97 3.15,2.09 6.19,4.01 9.37,6.07l14.07 9.11c1.41,0.91 3.82,2 4.08,3.7 0.33,2.17 -1.56,4.33 -3.7,3.62l-23.51 -15.1c-1.59,-1.03 -3.06,-1.97 -4.67,-3.05 -1.37,-0.92 -3.71,-1.83 -4.14,-3.51zm7.7 -11.32c1.79,-1.16 3.78,0.71 5.13,1.52l13.45 8.17c3.04,1.9 5.87,3.56 8.97,5.45 1.37,0.84 3.31,1.85 4.46,2.74 1.76,1.35 1.25,3.66 -0.31,4.58 -1.84,1.08 -3.51,-0.56 -4.92,-1.41l-26.89 -16.36c-2.17,-1.37 -1.57,-3.61 0.11,-4.69zm36.75 41.31l0.95 -1.27c0.46,-0.55 0.56,-0.79 0.91,-1.39 1.33,-2.26 0.78,-2.39 1.63,-3.11 0.81,-3.54 1.88,-19.11 -1.78,-20.1 -1.38,0.04 -0.16,0.84 -0.46,5.38 -0.53,7.94 -3.84,14.14 -8.57,19.98 -1.21,1.5 -7.23,6 -10.16,6.05l-0.9 -3.06c0.14,-0.06 0.24,-0.18 0.27,-0.12 0.01,0.02 3.2,-0.78 4.04,-3.14 1.42,-4.01 -2.67,-5.92 -6.43,-8.43 -1.57,-1.05 -3.01,-2.1 -3.11,-4.5 2.22,0.82 9.21,6.28 11.12,6.85 2.72,0.81 4.96,-1.21 5.36,-3.49 0.59,-3.31 -1.09,-4.2 -3.06,-5.55l-16.39 -10.64c-1.88,-1.22 -4.26,-2.33 -4.46,-4.64 1.76,0.35 22.14,14.01 24.46,14.24 3.37,0.34 6.05,-4.75 3.03,-7.39 -1.47,-1.28 -24.1,-14.74 -28.27,-17.31 -2.24,-1.38 -2.02,-1.39 -4.99,-1.73 -0.68,-1.31 -1.84,-3.51 -2.29,-5.12 -0.29,-0.51 0.14,-0.11 -0.52,-0.26 -3.19,3.16 -7.16,8.46 -9.73,12.38 -1.44,2.21 -6.66,12.59 -6.93,15.37 10.98,8.25 26.1,18.57 36.58,27.23 1.38,1.14 1.6,2.02 4.22,1.58 5.43,-0.92 11.86,-5.21 15.48,-7.8z"/>
    <path class="fil4" d="M146.95 82.68c-0.52,-0.81 -0.5,-0.9 -0.52,-1.8 -0.07,-3.22 -0.17,-1.49 -0.56,-4.33 -2.1,-15.53 4.79,-29.36 16.47,-38.19 4.24,-3.21 8.1,-5.41 13.23,-7.63 5.22,-2.25 13.46,-4.44 19.35,-5.12 0.43,-0.05 1.19,-0.11 1.59,-0.24 1.09,-0.35 0.7,-0 0.76,-0.63 -29.7,-3.71 -51.43,9.26 -58.66,31.1 -4.09,12.34 -2.71,27.68 3.75,37.34 3.34,5 6.24,8.1 11.33,11.34 2.69,1.72 13.6,6.32 17.34,4.87 -0.92,-0.55 -3.05,-1.25 -4.19,-1.8 -4.49,-2.16 -8.02,-4.67 -11.37,-7.94 -5.16,-5.04 -7.22,-9.9 -8.54,-16.96z"/>
    <path class="fil4" d="M338.77 164.56c-0.99,0.43 -3.72,4.66 -9.68,7.31 -2.09,0.93 -4.08,1.54 -6.5,1.99 -2.97,0.55 -5.29,0.32 -8.13,0.65 -0.46,0.65 -1.21,1.64 -1.03,2.51 23.82,3.81 40.29,-11.49 47.64,-25.7 9.79,-18.94 5.99,-38.67 -11.2,-50.64 -0.3,-0.21 -0.52,-0.39 -0.76,-0.53 -0.76,-0.44 -0.21,-0.23 -0.85,-0.34 -0.64,0.56 0.51,1.17 1.63,3.43 0.63,1.28 1.31,2.45 1.89,3.78 1.19,2.77 2,5.22 2.73,8.32 1.55,6.54 1.56,13.67 0.41,20.3 -1.57,9.02 -6.07,20.64 -12.94,26.45 -0.94,0.8 -1.92,1.83 -3.2,2.46z"/>
    <path class="fil7" d="M158.82 158.61c0.2,10 -4.17,25.19 -0.27,32.98 0.69,1.38 0.07,3.69 0.36,5.42 0.44,2.64 0.07,3.11 -0.23,5.57 -1.38,11.13 -0.57,21.61 2.36,32.35l2.66 8.42c0.52,1.01 0.67,1.49 1.79,2.04 -0.82,-3.97 -0.65,-8.26 0.86,-12 1.75,-4.34 3.94,-5.29 4.46,-6.1 1.26,-1.96 -2.34,-3.71 4.51,-12.73 2.5,-3.29 4.78,-2.44 6.41,-8.02 -3.04,2.33 -13.49,7.74 -18.43,7.32 -0.44,-1.68 0.18,-3.34 0.29,-4.97 -1.18,0.79 -0.86,1.39 -1.69,2.52 -0.6,-0.85 -0.77,-2.27 -0.8,-3.58 -0.07,-3.98 -1.64,-5.39 -1.89,-11.85 -0.39,-10.07 5.85,-19.28 15.72,-20.41 2.77,-0.32 5.39,-0.1 7.88,0.77 4.14,1.45 3.06,2.82 4.98,4.14 0.16,-2.8 -3.8,-9.04 -5.94,-11.15l-1.44 -1.16 0.17 1.42c-3.8,-0.54 -7.2,-2.8 -13.6,0.83 -5.04,2.86 -5.82,5.93 -7.92,8.59 0.18,-4.85 1.85,-9.21 4.26,-12.02 -0.38,-0.38 -0.98,0.81 -0.14,-1.06 0.52,-1.15 2.83,-3.74 4.45,-4.62 3.44,-1.87 4.9,-0.99 8.6,-1.08l1 -7.12c-3.31,0.73 -6.38,1.39 -9.56,2.33 -2.18,0.64 -7.25,2.18 -8.85,3.18z"/>
    <path class="fil0" d="M229.41 183.16c0.77,0.54 1.62,0.56 2.13,1.35 0.59,0.92 0.34,2.17 -0.25,2.85 -0.63,0.72 -1.47,1.06 -2.73,1.03 -1.96,-0.05 -1.75,-0.72 -2.83,-1.18 -1.65,1.94 -1.13,5.21 -0.78,7.75l-3.02 0.52c-0.55,-4.66 -0.54,-9.19 1.7,-12.68 3.98,-6.19 15.35,-4.53 19.75,3.49 1.46,2.66 2.9,9.84 1.39,12.85l-2.3 -1.32c0.95,-2.69 1.71,-2.98 1.44,-6.72 -0.52,-7.23 -8.85,-11.3 -14.52,-7.96zm-13.79 -3.06l-0.17 0.43c0.4,1.22 -0.25,0.49 2.42,-0.41 0.63,-0.21 2.39,-0.71 2.81,-0.71 0.02,0.5 -1.77,3.06 -2.28,4.33 -0.72,1.78 -1.14,3.56 -1.44,5.55 -0.32,2.17 -0.39,4.47 -0.31,6.7 0.07,1.82 -0.49,2.21 -2.6,4.38l-0.11 1.18c6.35,-2.79 12.66,-3.24 20.03,-1.22 6.41,1.76 11.51,5.1 13.34,10.85 1.3,-1.59 0.78,-4.61 1.3,-6.5 1.38,-5.05 2.19,-7.75 1.45,-13.69 -0.26,-2.08 -1.53,-5.11 -1.54,-6.42 -1.63,-1.38 -1.81,-4.27 -5.75,-7.18 -5.75,-4.25 -13.2,-5.91 -20.07,-2.99 -4.32,1.84 -4.89,3.66 -6.59,5.28 -0.32,0.31 -0.12,0.15 -0.49,0.42z"/>
    <path class="fil7" d="M195.01 288.43c-1.62,-2.56 -4.36,-4.78 -1.33,-8.4 3.55,-4.24 14.16,-4.87 20.02,-3.73 6.22,1.21 6.4,2.47 9.21,3.31 -1.22,-5.96 -3.74,-5.49 -6.38,-7.36 1.75,-0.98 3.09,-1.57 4.58,-2.64 3.56,-2.56 7.47,-8.18 8.38,-12.56 -2.79,2.1 -4.42,13.62 -30.27,13.11 -2.45,-0.05 -11.81,-0.22 -13.31,-1.11 -0.73,-0.52 -2.02,-4.42 -2.41,-5.35 -2.52,-5.92 -2.54,-6.93 -6.74,-9.23 -1.48,-0.81 -3.95,-1.94 -5.87,-2.08 0.17,0.45 3.46,5.43 5.29,9.62 3.3,7.6 4.4,13.59 9.55,20.32 1.62,2.12 5.81,5.35 9.28,6.1z"/>
    <path class="fil6" d="M204.84 298.13c-0.13,1.72 3.98,7.42 4.96,8.53 1.65,1.88 5.76,5.56 8.04,5.89 1.6,-2.98 2.56,-4.91 4.7,-6.75 2.68,-2.3 3.81,-2.46 7.45,-4.14 3.47,-1.6 12.87,-7.42 13.96,-9.32 0.6,-1.43 1.44,-2.74 2.15,-4.18 0.74,-1.5 1.17,-2.95 1.7,-4.48 0.55,-1.57 0.95,-3.2 1.25,-4.91l0.49 -4.28c-0.01,-0.43 0.02,-0.34 -0.11,-0.74 -0.27,-0.87 0.53,-0.12 -0.4,-0.63 -3.88,5.74 -12.33,13.35 -17.62,17.09 -7.06,5 -15.85,7.95 -26.57,7.92z"/>
    <path class="fil3" d="M285.52 173.41c0.6,1.08 1.51,1.64 2.33,2.42l6.86 6.98c0.97,-2.82 1.65,-5.41 2.81,-8.27 0.55,-1.36 1.03,-2.51 1.61,-3.79 0.49,-1.09 1.59,-2.85 1.86,-3.87 -0.16,-1.88 -13.16,-15.34 -15.47,-17.55l-5.62 -5.25c-1.46,-0.8 -2.59,-2 -3.9,-2.99l-1.1 -1.11c-1.2,-0.26 -5.28,-4.13 -7.43,-4.87l0.88 1.29c0.29,0.34 0.49,0.63 0.79,0.99 3.71,4.38 7.28,9.57 9.78,14.92 2.11,4.52 6.43,15.89 7.11,21 -0.31,0.24 0.42,0.51 -0.5,0.09z"/>
    <path class="fil8" d="M311.68 356.82l2.56 1.71c2.42,0.9 16.02,-8.8 38.41,0.18 6.9,2.77 7.55,4.07 11.13,5.65 -0.4,0.46 0.08,0.14 -0.82,0.25 0.76,0.67 0.64,0.68 2.06,1.02 -0.57,-3.51 -7.44,-9.95 -9.92,-11.72 -3.84,-2.74 -8.78,-5.42 -14.27,-7.09 -5.89,-1.79 -12.35,-2.61 -18.67,-0.89 -4.34,1.18 -8.89,4.25 -9.77,8.76 -0.48,2.43 0.07,1.91 -0.71,2.11z"/>
    <path class="fil10" d="M228.41 309.4l0.79 0.12c-0.24,2.73 -0.7,5.72 -0.06,8.43 3.6,-0.68 11.57,-5.96 14.78,-8.27 0.89,-0.64 1.7,-1.34 2.59,-2.05 1.87,-1.46 3.3,-2.65 4.94,-4.33 1.59,-1.63 3.09,-2.91 4.66,-4.61l4.43 -4.85c0.76,-0.94 1.36,-1.62 2.15,-2.48l6.05 -7.97c0.43,0.48 0.5,-0.9 0.34,1.08l0.5 -1.17c0.15,-0.44 0.24,-0.79 0.34,-1.18 0.24,-0.93 0.45,-1.79 0.68,-2.68 0.46,-1.79 0.8,-3.46 1.1,-5.33 0.5,-3.08 1.15,-9.41 0.58,-12.42 -3.52,-0.62 -1.15,-0.09 -3.48,7.21 -9.99,31.29 -39.06,38.97 -40.39,40.49z"/>
    <path class="fil4" d="M228.41 309.4c-1.46,0.16 -2.34,1.89 -3.15,3.25 -2.9,4.91 -3.29,12.92 -1.07,16.38 3.38,-0.81 11.94,-5.77 14.74,-7.6 9.15,-5.95 16.83,-12.73 22.83,-21.98 1.92,-2.96 6.64,-11.02 7.3,-14.98 0.17,-1.97 0.09,-0.59 -0.34,-1.08l-6.05 7.97c-0.8,0.86 -1.39,1.54 -2.15,2.48l-4.43 4.85c-1.57,1.7 -3.07,2.98 -4.66,4.61 -1.64,1.68 -3.07,2.87 -4.94,4.33 -0.89,0.7 -1.7,1.4 -2.59,2.05 -3.21,2.32 -11.17,7.59 -14.78,8.27 -0.63,-2.71 -0.18,-5.7 0.06,-8.43l-0.79 -0.12z"/>
    <path class="fil7" d="M255.27 421.58c0.55,-0.5 -0.06,0.42 0.54,-0.48 3.64,3.09 -0.54,7.08 -0.7,7.82 4.87,-0.56 6.49,-3.77 7.71,-4.84 0.16,3.01 -1.12,5.56 -2.98,6.31 1.35,2.26 8.07,2.89 10.95,2.49 1.04,-5.66 1.98,-10.24 1.62,-16.34 -0.21,-3.58 -1.08,-7.98 -2.37,-11.25 -0.46,-1.16 -0.75,-2.46 -1.82,-3.09 0.03,0.8 -1.49,1.79 -2.41,2.49 -4.58,3.48 -7.09,2.76 -11.93,3.51 -0.14,1.23 0.86,4.56 1.08,6.22 0.35,2.69 0.21,4.58 0.31,7.16z"/>
    <path class="fil11" d="M174.13 363.32l-1.22 -0.75c-7.15,-3.3 -21.89,-12.06 -29.18,-16.12 -1.88,-1.05 -9.02,-5.3 -10.42,-5.76 0.45,1.6 1.61,3.8 2.29,5.12 2.98,0.34 2.75,0.34 4.99,1.73 4.17,2.57 26.8,16.03 28.27,17.31 3.03,2.64 0.34,7.72 -3.03,7.39 -2.32,-0.23 -22.7,-13.89 -24.46,-14.24 0.2,2.32 2.58,3.42 4.46,4.64l16.39 10.64c1.97,1.34 3.65,2.23 3.06,5.55 -0.4,2.28 -2.64,4.3 -5.36,3.49 -1.9,-0.57 -8.89,-6.03 -11.12,-6.85 0.11,2.4 1.54,3.46 3.11,4.5 3.76,2.5 7.85,4.41 6.43,8.43 -0.84,2.36 -4.03,3.16 -4.04,3.14 -0.03,-0.06 -0.13,0.06 -0.27,0.12l0.9 3.06c2.93,-0.04 8.95,-4.55 10.16,-6.05 4.73,-5.84 8.03,-12.05 8.57,-19.98 0.3,-4.54 -0.92,-5.35 0.46,-5.38z"/>
    <path class="fil9" d="M306.56 464.92c-0.6,-0 -0.18,-0.13 -0.44,0.11 1.57,1.82 5.4,7.31 2.01,9.88 -0.74,-0.48 -2.35,-2.09 -2.86,-2.64 -1.7,-1.84 -6.6,-5.25 -8.79,-6.91 -5.74,-4.36 -18.89,-12.71 -25.45,-16.77 -1.15,-0.71 -11.92,-8.01 -13.07,-7.75l-1.29 4.2c1.09,0.86 2.87,2.01 4.2,2.9 9.47,6.37 19.77,13.97 29.16,20.53 3.83,2.67 12.59,9.57 17.98,10.34 4.78,0.69 7.74,-2.32 5.64,-6.94 -0.97,-2.14 -5.13,-6.57 -7.09,-6.94z"/>
    <path class="fil7" d="M271.05 248.78c5.83,-2.2 12.86,-13.99 15.44,-20.89 0.26,-0.7 0.99,-3.23 1.29,-3.75 0.58,0.64 0.57,2.26 0.72,3.27 0.11,0.78 0.12,1.25 0.18,2.02 0.02,0.23 0.04,0.65 0.12,0.86 0.3,0.74 -0.05,0.24 0.53,0.74 0.32,-0.49 0.85,-1.01 1.27,-1.58 0.44,-0.6 0.79,-1.13 1.22,-1.88 0.94,-1.64 1.06,-2.5 1.63,-4.48 -4.16,0.3 -5.82,-1.55 -7.19,-4.7 -0.19,-0.43 -0.02,-0.12 -0.25,-0.55 -0.34,-0.63 -0.09,-0.22 -0.36,-0.53 0.11,1.28 0.03,0.54 -0.17,0.95 -2.57,-0.35 -4.58,-1.64 -5.63,-3.8 -0.67,-1.39 -0.06,-1.37 -0.16,-2.65 -0.65,0.67 -0.69,2.37 -0.92,3.46 -0.43,2.1 -0.23,2.86 -0.78,3.65 -1.92,-6.54 -4.68,-29.28 -5.09,-36.84 -0.05,-1 -0.22,-5.05 -0.7,-5.6 -2.69,13.45 -0.64,24.35 1.73,37.22 1.13,6.12 2.2,12.3 2.08,18.84 -0.14,8.04 -1.84,10.47 -4.97,16.25z"/>
    <path class="fil3" d="M235.95 342.1l-1.85 -0.15c0.7,-0.94 4.11,-2.29 5.41,-2.95 4.69,-2.39 10.93,-6.33 14.57,-9.63l4.33 -3.92c0.75,-0.73 1.32,-1.31 2.02,-2.1 2.03,-2.3 3.4,-3.68 5.36,-6.5 0.36,-0.52 2.95,-4.69 3.38,-4.71l1.39 -8.51c-0.92,0.51 -3.18,3.96 -4.03,4.97 -7.35,8.66 -15.5,14.8 -25.68,20.4 -4.2,2.31 -8.15,3.87 -12.68,5.86 -0.54,1.76 -0.97,6.39 -0.98,8.39 1.72,-0.08 7.72,-0.36 8.77,-1.15z"/>
    <path class="fil4" d="M125.52 310.3c0.85,-0.37 7.02,-7.79 8.19,-9.4l12.45 -13.8c0.64,-0.8 0.63,-1.23 1.58,-1.54 0.05,1.59 0.02,3.1 0.94,3.95 0.03,0.03 3.61,2.43 4.05,-0.51 0.05,-0.35 0.06,-0.99 0.1,-1.38 0.37,-3.94 2.13,-9.07 4.18,-12.33l2.71 -3.77 0.2 -3.77c-2.65,0.65 -9.57,5.57 -11.36,7.06 -4.62,3.82 -12.46,14.06 -17.32,19.5l-8.47 10.11c1.16,1.14 2.17,4.05 2.75,5.87z"/>
    <path class="fil8" d="M280.14 440.37c0.47,-0.78 3.83,-2.45 4.91,-3.04 1.22,-0.66 4.24,-2.53 5.26,-2.76l-0.01 1.21 0.86 -5.76c0.29,-3.59 0.67,-16.67 -0.92,-18.7l0.07 1.95 -5.31 2.22c-1.59,-3.52 -1.96,-8.73 -5.72,-15.33 -1.77,-3.12 -2.31,-3.61 -4.28,-6.28 -0.76,-1.03 -1.88,-1.81 -2.71,-2.7 -0.92,-0.97 -1.62,-1.74 -3.07,-2.25 0.71,1.78 8.34,8.87 9.71,21.3 1.05,9.5 0.56,13.34 0,22.1 -0.15,2.29 -0.83,4.86 -0.88,6.95 0.65,0.32 1.4,0.82 2.08,1.09z"/>
    <path class="fil3" d="M45.87 293.8c0.29,-0.95 0.65,-0.12 3.32,0.45 1.5,0.32 2.96,0.52 4.55,0.65 6.17,0.48 12.29,-0.8 18.09,-2.57 2.01,-0.61 6.09,-2.42 7.64,-2.64 0.33,0.86 0.7,1.75 1.02,2.61 0.41,1.1 1.07,2.05 0.54,3.07 4.46,-1.57 12.7,-8.23 15.78,-11.53 1.08,-1.15 0.27,-1.94 -0.39,-3.6 -0.53,-1.32 -2.75,-7.14 -3.29,-7.73 -0.54,0.35 -3.07,3.28 -3.97,4.2 -6.92,7.04 -17.99,12.31 -28.13,13.85 -5.99,0.91 -10.37,0.5 -16.42,0.52l0.9 2.23c0.03,0.05 0.08,0.12 0.11,0.17l0.24 0.33z"/>
    <path class="fil3" d="M220.26 341.5c-1.93,-0.86 -5.36,-1.66 -7.59,-2.42 -13.72,-4.71 -27.94,-12.5 -35.29,-24.99l-3.06 -6.48c-0.25,-0.38 -0.13,-0.22 -0.39,-0.46 -0.28,3.95 1.1,15.17 1.95,19.07 0.53,2.47 9.83,7.49 12.3,8.74 8.37,4.23 14.77,6.05 24.08,7.59 1.5,0.25 3.06,0.26 4.64,0.49 2.11,0.3 3.6,0.97 3.36,-1.55z"/>
    <path class="fil11" d="M257.95 440.82c1.15,-0.26 11.92,7.04 13.07,7.75 6.56,4.06 19.71,12.42 25.45,16.77 2.19,1.66 7.1,5.07 8.79,6.91 0.51,0.55 2.12,2.17 2.86,2.64 3.39,-2.57 -0.44,-8.05 -2.01,-9.88 0.26,-0.24 -0.16,-0.11 0.44,-0.11 -0.57,-0.99 -4.72,-3.13 -5.84,-3.82 -4.66,-2.85 -40.57,-24.28 -41.54,-24.44l-1.23 4.16z"/>
    <path class="fil6" d="M163.7 243.35l-2.66 -8.42c-2.93,-10.74 -3.74,-21.22 -2.36,-32.35 0.31,-2.46 0.67,-2.93 0.23,-5.57 -0.29,-1.73 0.33,-4.03 -0.36,-5.42 -3.9,-7.79 0.47,-22.98 0.27,-32.98 -1.25,0.47 -1.36,2.17 -1.87,4.63l-3.82 16.24c-0.96,4.44 -0.65,7.24 0.74,11.38 2.08,6.18 2.56,2.98 1.14,10.34 -2.31,11.94 -1.93,23.4 3.47,34.21 0.83,1.67 1.46,2.77 2.44,4.25 0.53,0.81 2.15,3.45 2.77,3.68z"/>
    <path class="fil7" d="M50.48 219.35c-1.67,2.25 4.53,5.78 11.3,0.6 0.05,-0.04 0.68,-0.54 0.76,-0.57 0.74,-0.28 0.21,-0.46 0.76,0.13l0.6 -1.13c-1.57,-1.47 -2.98,-1.83 -3.51,-5.82 1.1,0.25 2.3,1.05 3.6,1.47 6.1,1.97 7.99,1.02 13.14,0.24l-0.54 1.83c1.25,0.92 3.47,4.29 7.06,4.79 3.7,0.52 6.69,-1.83 7.44,-4.53 -6.65,1.36 -10.1,-3.22 -13.54,-5.6 -2.32,-1.6 -14.97,-1.5 -16.82,-2.7 -1.11,-0.84 -1.17,-4.53 -0.97,-5.74 -1.3,0.56 -1.45,1.49 -3.49,3.38 -1.86,1.72 -0.04,4.91 -2.81,10.58 -1.06,2.17 -1.51,2.26 -2.82,3.82l-0.18 -0.76z"/>
    <path class="fil6" d="M89.02 227.39c-0.96,3.54 -0.49,8.1 0.64,11.49 0.88,2.64 1.8,4.26 3.74,6.01 0.57,0.51 1.05,0.68 1.73,1.24 -1.4,0.36 -2.49,0.2 -3.85,-0.12 -3.01,-0.71 -2.35,0.12 -3.3,-0.91 -1.4,-0.61 -2.15,-1.08 -3.17,-1.92 -1.01,-0.84 -1.85,-2.24 -2.76,-2.63 0.04,1.63 1.13,4.36 2.01,4.6 0.07,0.05 0.15,0.12 0.2,0.18 0.05,0.05 0.13,0.12 0.19,0.18 0.05,0.06 0.11,0.11 0.16,0.18l0.57 0.77c0.24,0.25 0.79,0.59 1.21,0.82 0.83,0.46 2.01,0.67 2.58,1.22 -2.75,2.87 -9.79,7.14 -11.07,14.13 -0.44,2.4 -0.53,2.54 0.1,2.84 3.77,-4.9 8.67,-10.14 14.01,-13.2 9.52,-5.45 7.73,-5.25 6.26,-9.92 -0.76,-2.42 -1.16,-4.93 -1.71,-7.57 -0.46,-2.22 -1.35,-9.4 -4.51,-8.74 -1.09,0.23 -2.57,0.66 -3.03,1.36z"/>
    <path class="fil4" d="M269.23 388.92c1.44,0.52 2.15,1.28 3.07,2.25 0.83,0.88 1.95,1.67 2.71,2.7 1.97,2.67 2.51,3.16 4.28,6.28 3.76,6.6 4.13,11.81 5.72,15.33l5.31 -2.22 -0.07 -1.95c0.23,-3.56 -3.88,-13.58 -5.42,-16.44 -1.74,-3.22 -6.86,-10.86 -9.65,-12.28l-8.48 3.98c0.38,0.79 2.05,2.08 2.54,2.35z"/>
    <path class="fil1" d="M104.28 401.43c0.22,0.79 1.36,1.53 2.4,2.42 3.57,3.03 18.24,14.28 20.42,14.78 0.12,-0.42 1.66,-22.66 1.58,-23.08 -1.48,0.54 -3.93,3.17 -10.69,4.99 -1.96,0.52 -4.45,0.99 -6.56,1.14 -1.22,0.08 -7.02,-0.29 -7.15,-0.24z"/>
    <path class="fil4" d="M235.95 342.1c4.59,0.37 20.26,-5.49 24.24,-7.39 1.75,-0.83 3.48,-1.65 5.19,-2.54 1.93,-1 1.48,-1.5 2.09,-5.83 0.3,-2.13 1.94,-13.12 1.69,-14.19 -0.43,0.02 -3.02,4.19 -3.38,4.71 -1.96,2.82 -3.33,4.2 -5.36,6.5 -0.7,0.79 -1.26,1.37 -2.02,2.1l-4.33 3.92c-3.64,3.3 -9.88,7.24 -14.57,9.63 -1.3,0.66 -4.7,2.02 -5.41,2.95l1.85 0.15z"/>
    <path class="fil6" d="M14.24 204.01c0.05,2.59 5.29,4.86 7.19,6.26 3.61,2.67 7.33,6.59 9.71,10.63 1.72,2.93 3.3,6.41 4.1,9.81l0.93 4.94c0.22,0.87 -0.11,0.1 0.33,0.89 0.91,-0.31 0.77,-0.36 1.35,-1.12 0.49,-0.64 0.63,-0.87 1.05,-1.51 0.84,-1.27 0.98,-2.28 0.83,-3.88 0.3,-4.61 -4.43,-15.51 -7.88,-19.87 -2.61,-3.3 -7.8,-7.85 -12.63,-8.18 -2.37,-0.16 -4.61,0.36 -4.97,2.03z"/>
    <path class="fil0" d="M127.97 359.21c0.43,1.68 2.77,2.59 4.14,3.51 1.62,1.08 3.08,2.02 4.67,3.05l23.51 15.1c2.14,0.71 4.03,-1.45 3.7,-3.62 -0.26,-1.69 -2.67,-2.79 -4.08,-3.7l-14.07 -9.11c-3.18,-2.06 -6.22,-3.99 -9.37,-6.07 -0.88,-0.58 -4.08,-2.75 -4.8,-2.97 -2.2,-0.68 -4.24,1.65 -3.7,3.81z"/>
    <path class="fil7" d="M231.08 440c1.35,4.71 13.35,7.11 18.57,5.93 1.88,-0.42 1.82,-1.02 2.69,-2.46l4.14 -6.26c-0.9,-1.45 -3.17,-2.73 -5.34,-2.41 -0.9,0.43 -3.12,5.69 -3.66,7.15 -0.43,1.16 -0.6,1.62 -1.99,1.69 -0.66,-1.52 -0.62,-4.04 -1.93,-6.47 -0.46,-0.85 -0.89,-1.02 -1.12,-1.97l1.4 0.25c0.03,-1.16 1.11,-2.1 1.66,-2.97 0.58,-0.92 1.11,-1.74 1.66,-2.72 1.03,-1.85 1.98,-4.29 2.42,-6.9 -6.82,0.76 -5.63,-0 -7.06,3.03 -0.39,0.83 -0.75,1.61 -1.18,2.43 -2.15,4.09 -4.69,11.78 -10.25,11.66z"/>
    <path class="fil4" d="M45.87 293.8c0.05,0.97 2.72,7.64 3.41,8.34 5.57,0.68 12.54,-0.47 17.67,-1.53 2.74,-0.57 12.97,-3.85 14.08,-5.25 0.52,-1.02 -0.13,-1.97 -0.54,-3.07 -0.32,-0.86 -0.69,-1.74 -1.02,-2.61 -1.55,0.22 -5.63,2.03 -7.64,2.64 -5.8,1.77 -11.92,3.05 -18.09,2.57 -1.58,-0.12 -3.04,-0.33 -4.55,-0.65 -2.67,-0.56 -3.04,-1.39 -3.32,-0.45z"/>
    <path class="fil3" d="M204.94 313.46c-1.02,-2.03 -4.23,-2.58 -7.9,-5.12 -5.53,-3.83 -8.87,-8.12 -12.23,-14.03 -3.37,-5.91 -0.96,-2.17 -4.73,-6.59l-0.85 -0.83c-0.04,-0.03 -0.12,-0.09 -0.18,-0.13 0.3,5.55 5.08,17.43 7.64,21.36 2.87,4.4 10.76,12.78 16.24,12.32 2,-2.91 1.32,-6.11 2,-6.98z"/>
    <path class="fil4" d="M204.94 313.46c-0.68,0.87 -0,4.07 -2,6.98 -5.48,0.46 -13.38,-7.91 -16.24,-12.32 -2.56,-3.94 -7.34,-15.81 -7.64,-21.36 -0.18,-0.83 -1.21,-2.11 -1.7,-3.01 -0.58,-1.06 -1.06,-2.65 -1.85,-3.36 -0.41,8.99 4.06,22.53 8.72,30.21 2.64,4.34 5.47,7.43 8.8,10.51 1.64,1.51 9.21,6.85 12.11,7.43 1.14,-1.4 1.66,-5.61 1.79,-7.69 0.15,-2.55 -0.59,-6.06 -1.99,-7.38z"/>
    <path class="fil6" d="M279.68 211.8c0.09,1.27 -0.51,1.26 0.16,2.65 1.04,2.17 3.06,3.45 5.63,3.8 0.2,-0.41 0.28,0.33 0.17,-0.95 0.1,-1.31 -0.51,-2.87 -0.57,-4.34 -0.48,-11.58 7.81,-13 11.89,-8.91 2.48,2.49 1.96,3.36 2.75,7.03 0.75,3.47 -0.98,6.06 -2.68,8.55l-0.78 1.1c-0.7,1.46 -1.54,1.5 -2.8,2.36 -0.57,1.98 -0.69,2.84 -1.63,4.48 -0.43,0.75 -0.78,1.28 -1.22,1.88 -0.42,0.57 -0.95,1.09 -1.27,1.58 4.5,-0.59 9.02,-6.36 10.89,-9.74 7.78,-14.13 -3.49,-26.78 -12.34,-22.38 -4.31,2.14 -8.23,9.67 -8.19,12.91z"/>
    <path class="fil12" d="M220.44 166.96c0.07,1.2 -0.74,1.84 -1.35,2.8 -0.62,0.97 -1.11,2 -1.56,3.07 -0.91,2.15 -1.92,4.69 -1.92,7.27 0.37,-0.27 0.17,-0.11 0.49,-0.42 1.71,-1.62 2.27,-3.44 6.59,-5.28 6.87,-2.93 14.33,-1.26 20.07,2.99 3.94,2.91 4.12,5.8 5.75,7.18 -0.02,-1.47 -0.18,-3.07 -0.38,-4.55 -0.1,-0.72 -0.29,-1.47 -0.35,-2.19 -0.02,-0.24 -0.01,-1.16 -0.02,-1.18 -0.02,-0.15 0.29,-0.3 -0.45,-1.28l-0.14 0.71c-1.66,-3.32 -6.41,-6.97 -10.6,-8.75 -7.75,-3.3 -11.42,-0.98 -16.16,-0.38z"/>
    <path class="fil13" d="M59.77 202.34c-0.2,1.21 -0.15,4.91 0.97,5.74 1.85,1.2 14.5,1.09 16.82,2.7 3.45,2.38 6.89,6.96 13.54,5.6 0.92,-1.38 0.37,-3.62 -0.78,-4.46 -2.35,-1.73 -7.58,-3.38 -11.08,-6.69 -2.34,-2.21 -4.73,-2.79 -8.71,-3.11 -2.14,-0.17 -9.16,-1.1 -10.46,-0.12 -0.27,0.21 -0.22,0.23 -0.3,0.33z"/>
    <path class="fil0" d="M135.66 347.89c-1.68,1.09 -2.29,3.32 -0.11,4.69l26.89 16.36c1.41,0.85 3.07,2.49 4.92,1.41 1.56,-0.91 2.07,-3.22 0.31,-4.58 -1.16,-0.89 -3.1,-1.91 -4.46,-2.74 -3.1,-1.89 -5.93,-3.55 -8.97,-5.45l-13.45 -8.17c-1.35,-0.81 -3.34,-2.68 -5.13,-1.52z"/>
    <path class="fil0" d="M123.82 368.48c0.39,1.27 6.79,5.22 8.34,6.3l21.58 14.76c2.35,0.79 3.99,-1.47 3.28,-3.77 -0.34,-1.11 -14.96,-10.72 -16.99,-12.16l-13.05 -8.85c-2,-0.53 -3.77,1.76 -3.16,3.72z"/>
    <path class="fil4" d="M194.13 257.15c0.93,-0.24 8.95,1.03 17.84,-1.56 7.84,-2.28 7.21,-2.58 9.63,-7.4 0.42,-0.83 0.74,-1.11 0.07,-1.36l-8.43 2.8c-6.86,1.86 -13.34,2.63 -20.47,2.16 -1.7,-0.11 -3.38,-0.25 -5.02,-0.54 -1.37,-0.24 -3.76,-0.8 -5,-0.77 0.22,0.51 3.18,5.35 3.5,5.55 0.87,0.54 6.63,1.35 7.87,1.11z"/>
    <path class="fil14" d="M217.84 312.55c-2.27,-0.33 -6.38,-4.02 -8.04,-5.89 -0.98,-1.11 -5.09,-6.82 -4.96,-8.53 -1.76,-0.06 -4.25,-0.16 -5.92,-0.43 -1.19,-0.19 -4.19,-1.02 -4.98,-0.98 3.26,3.95 5.45,6.62 10.83,9.3 7.05,3.51 9.26,11.52 7.97,18.85 -0.34,1.91 -1.58,4.27 -1.67,5.25 1.47,1.2 3.98,2.33 6.7,1.33 0.21,-0.53 -1.41,-7.11 -1.43,-9.06 -0.03,-4.3 0.2,-6.08 1.49,-9.84z"/>
    <path class="fil4" d="M173.66 98.25c0.54,0.49 3.29,1.48 4.36,1.55 -0.51,-1.68 -9.65,-9.58 -2.06,-22.1 0.48,-0.79 1.53,-1.88 1.64,-2.56 0.33,-1.21 1.64,-2.27 2.03,-4.25 -3.33,0.65 -12.15,5.74 -13.62,10.76 -1.3,4.43 1.59,10.8 4.54,13.49l2.97 2.9c0.03,-0.05 0.1,0.13 0.14,0.21z"/>
    <path class="fil0" d="M285.64 217.3c0.27,0.3 0.02,-0.11 0.36,0.53 0.23,0.43 0.07,0.12 0.25,0.55 1.37,3.15 3.03,4.99 7.19,4.7 1.26,-0.85 2.1,-0.9 2.8,-2.36 -0.29,-0.98 -2.59,0.13 -5.02,-2.56 3.4,-2.57 1.01,-4.23 0.04,-7.11 1.78,-1.19 3.01,0.13 4.47,0.37 -0.87,-4.9 -5,-3.44 -6.01,-3.48 0.73,-0.43 0.46,-1 2.34,-1.51 2.63,-0.71 4.25,0.96 5.62,2.3 0.95,0.94 1.04,1.62 2.03,2.35 -0.79,-3.67 -0.27,-4.55 -2.75,-7.03 -4.08,-4.09 -12.38,-2.67 -11.89,8.91 0.06,1.47 0.67,3.04 0.57,4.34z"/>
    <path class="fil0" d="M53.08 273.67l-1.33 0.47c-0.06,0.03 -0.18,0.17 -0.22,0.11 -0.04,-0.06 -0.16,0.06 -0.22,0.12 0.91,0.35 1.56,0.96 2.62,1.5 14.92,7.56 23.77,-17.24 10.6,-28.11 -2.3,-1.9 -1.71,-1.8 -2,-1.06 1.31,0.65 3.36,5.2 3.86,7.47 3.1,14.12 -9.76,20.39 -13.31,19.51z"/>
    <path class="fil7" d="M218.67 435.03c0.75,0.71 4.55,0.91 5.87,0.96 2.5,-5.74 6.27,-13.9 10.26,-18.8 0.77,-0.94 1.42,-1.54 2,-2.41 0.5,0.4 0.14,-0.08 0.28,0.81 0.59,-0.72 0.5,0.99 0.5,-1.03 -0.51,-1.51 -7.94,0.25 -8.7,0.55 -2.4,0.95 -3.39,2.78 -4.54,5.26 -1.79,3.9 -4.14,10.01 -5.06,14.52l-0.6 0.13z"/>
    <path class="fil5" d="M9.81 227.06c0.82,2.4 8.26,6.12 11.11,7.92 1.93,1.22 3.9,2.66 5.52,4.01 2.51,2.09 3.6,4.05 4.95,4.38 1.23,-1.59 0.87,-1.54 1.11,-3.83 -0.11,-1.46 -2.71,-4.96 -3.56,-6.14 -1.24,-1.72 -3.13,-3.61 -4.85,-4.93 -5.33,-4.09 -13.68,-4.49 -14.28,-1.4z"/>
    <path class="fil8" d="M221.67 246.83c0.67,0.25 0.35,0.53 -0.07,1.36 -2.42,4.83 -1.79,5.12 -9.63,7.4 -8.89,2.59 -16.91,1.32 -17.84,1.56 0.07,0.05 0.25,0.17 0.3,0.2 0.04,0.03 0.13,0.09 0.17,0.13l0.37 0.3c-2.32,0.47 -4.87,0.72 -7.41,0.94l1.72 4.85c0.37,0.65 0.03,0.26 0.58,0.69 -0.44,-1.32 0.72,-3.35 1.47,-4.35 1.84,-0.29 4.62,-0.16 6.6,-0.24 3.98,-0.17 9.08,-0.75 13.03,-1.47 1.65,-0.3 4.66,-1.22 6.03,-1.19 0.69,0.75 1.63,1.92 1.68,2.82 3.59,-1.52 9.29,-11.31 10.38,-16.98 -0.81,0.22 -2.56,1.43 -3.61,1.99l-3.3 1.61c-0.44,0.28 -0.14,0.03 -0.46,0.38z"/>
    <path class="fil0" d="M220.44 166.96c4.74,-0.6 8.41,-2.92 16.16,0.38 4.19,1.78 8.94,5.42 10.6,8.75l0.14 -0.71c-1.24,-7.06 -4.85,-12 -10.28,-14.4 -3.26,-1.45 -6.8,-1.77 -10.45,-0.7 -1.68,0.49 -3,1.34 -3.92,2.26 -1.18,1.18 -1.56,2.38 -2.24,4.43z"/>
    <path class="fil15" d="M181.53 216.2c0.31,0.46 -0.61,3.54 -0.72,4.54 -0.2,1.83 0.25,4.07 0.12,5.33 2.3,-0.03 2.92,2.12 4.28,2.79 0.06,-0.59 -0.32,-0.29 0.36,-0.33 6.09,5.78 17.45,3.61 19.66,-4.07 -1.23,0.73 -1.59,1.23 -3.1,1.97 -3.55,1.73 -8.12,1.43 -11.55,-0.18 -6.39,-3 -4.79,-9.79 -4.88,-14.05 -0.7,0.49 -0.45,0.29 -0.9,1.03 -0.26,0.44 -0.48,0.95 -0.76,1.29 -0.85,1.01 -1.71,0.61 -2.51,1.69z"/>
    <path class="fil13" d="M163.58 208.87c-0.11,1.63 -0.73,3.29 -0.29,4.97 4.94,0.42 15.39,-4.99 18.43,-7.32 0.62,-0.57 1.42,-3.14 1.62,-4.2 -4.1,-0.26 -8.43,0.14 -12.03,1.22 -2.97,0.89 -7.22,3.2 -7.73,5.32z"/>
    <path class="fil4" d="M189.85 264.27c5.78,0.12 10.37,0.48 16.25,-0.15 4.07,-0.44 10.71,-1.72 12.56,-4.29 -0.05,-0.9 -0.98,-2.07 -1.68,-2.82 -1.37,-0.03 -4.39,0.89 -6.03,1.19 -3.95,0.72 -9.04,1.3 -13.03,1.47 -1.98,0.09 -4.75,-0.05 -6.6,0.24 -0.75,1.01 -1.91,3.03 -1.47,4.35z"/>
    <path class="fil4" d="M229.41 183.16c5.67,-3.35 14,0.73 14.52,7.96 0.27,3.74 -0.49,4.03 -1.44,6.72l2.3 1.32c1.5,-3.02 0.07,-10.19 -1.39,-12.85 -4.4,-8.01 -15.77,-9.68 -19.75,-3.49 -2.24,3.49 -2.25,8.01 -1.7,12.68l3.02 -0.52c-0.35,-2.55 -0.88,-5.81 0.78,-7.75 1.08,0.46 0.86,1.13 2.83,1.18 1.26,0.03 2.1,-0.31 2.73,-1.03 0.59,-0.68 0.84,-1.93 0.25,-2.85 -0.51,-0.79 -1.36,-0.82 -2.13,-1.35z"/>
    <path class="fil7" d="M249.03 273.12c0.93,0.51 0.13,-0.23 0.4,0.63 0.12,0.4 0.09,0.31 0.11,0.74l-0.49 4.28c-0.3,1.71 -0.71,3.34 -1.25,4.91 -0.53,1.53 -0.96,2.98 -1.7,4.48 -0.71,1.44 -1.54,2.75 -2.15,4.18l1.54 -1.18c2.94,-2.54 6.17,-6.51 8.3,-9.72 2.41,-3.64 5.22,-9.39 6.23,-14.53l-8.77 4.01c-1.31,0.65 -1.32,1.24 -2.22,2.2z"/>
    <path class="fil7" d="M201.11 440.32c0.37,-0.78 1.29,0.36 1.98,0.74 0.75,0.41 1.8,0.81 2.63,0.99 2.42,0.53 5.19,-0.23 6.42,0.06 -0.37,-0.61 -0.12,-0.3 -0.61,-0.72 -2.11,-1.81 -6.76,-3.73 -7.93,-8.79 -0.25,-1.1 -0.59,-1.05 -2.12,-2.27l-5.6 -5.46c-0.72,-0.88 -0.26,-0.77 -1.42,-1.19 -0.72,3.46 -1.98,4.58 1.46,9.12 0.97,1.28 1.66,2.42 2.51,3.67 0.6,0.89 1.85,3.28 2.68,3.85z"/>
    <path class="fil0" d="M163.31 166.98c-2.42,2.81 -4.08,7.18 -4.26,12.02 2.1,-2.66 2.87,-5.73 7.92,-8.59 6.4,-3.63 9.81,-1.37 13.6,-0.83l-0.17 -1.42c-1.11,-1.36 -0.89,-2.45 -2.61,-3.8 -1.28,-1.01 -3.02,-1.78 -5.08,-1.83 -4.5,-0.11 -7.79,2.05 -9.4,4.45z"/>
    <path class="fil4" d="M164.58 200.22c0.63,-0.01 3.73,-1.79 4.4,-2.29 -0.55,-3.01 -1.08,-3.32 -0.5,-6.97 1.73,0.59 3.77,1.63 5.24,-0.41 2.04,-2.82 -2.2,-3.85 -2.2,-3.85 0.8,-1.32 3.71,-2.1 5.82,-2.07 3.03,0.04 3.87,1.12 5.91,2.05 -1.53,-5.81 -9.7,-6.34 -14.29,-2.69 -3.45,2.74 -5.93,10.3 -4.37,16.23z"/>
    <path class="fil11" d="M172.41 389.2c1.14,-0.12 1.78,0.63 2.6,1.16 0.86,0.55 1.59,1.21 2.57,1.57 -0.79,-1.62 1.27,-1.55 1.66,-1.45l11.7 7.38c0.95,0.63 3.85,2.55 4.83,2.89l-0.01 0.76c0.05,-0.05 0.12,-0.21 0.14,-0.17 0.02,0.04 0.11,-0.13 0.14,-0.17 0.5,-0.77 1.25,-2.44 1.3,-3.3l-19.11 -12.27c-0.89,-0.59 -2.32,-0.95 -2.33,-2.17 -0.85,0.73 -0.3,0.85 -1.63,3.11 -0.35,0.6 -0.46,0.84 -0.91,1.39l-0.95 1.27z"/>
    <path class="fil7" d="M201.97 420.99c0.78,1.55 2.79,3.68 3.95,4.58l5.07 -8.25c1.48,-2.1 4.56,-5.59 6.77,-6.93 0.56,0.4 0.17,-0.17 0.26,0.82 0.37,-0.38 0.3,-0.16 0.54,-0.82 0.17,-0.47 0.11,-0.57 0.15,-0.98 -0.94,-0.57 -2.15,-0.52 -3.28,-0.49 -3.08,0.08 -5.54,1.3 -7.5,3.28 -0.91,0.92 -2.34,2.83 -3.11,4.1l-1.91 3.48c-0.5,1.1 -0.08,0.79 -0.94,1.2z"/>
    <path class="fil7" d="M296.25 220.72l0.78 -1.1c1.69,-2.48 3.43,-5.08 2.68,-8.55 -0.98,-0.73 -1.07,-1.41 -2.03,-2.35 -1.37,-1.34 -2.99,-3.01 -5.62,-2.3 -1.87,0.5 -1.61,1.08 -2.34,1.51 1.02,0.04 5.14,-1.41 6.01,3.48 -1.46,-0.24 -2.7,-1.56 -4.47,-0.37 0.97,2.87 3.36,4.54 -0.04,7.11 2.43,2.68 4.74,1.57 5.02,2.56z"/>
    <path class="fil7" d="M87.98 245.1c0.94,1.02 0.28,0.19 3.3,0.91 1.36,0.32 2.45,0.48 3.85,0.12 -0.68,-0.56 -1.16,-0.72 -1.73,-1.24 -1.95,-1.75 -2.86,-3.37 -3.74,-6.01 -1.14,-3.38 -1.6,-7.94 -0.64,-11.49 -4.8,1.66 -5.4,7.91 -2.35,13.68 0.85,1.6 2.01,2.9 2.64,4.12l-1.33 -0.08z"/>
    <path class="fil1" d="M78.98 231.78c0.04,-0.06 0.08,-0.23 0.09,-0.19 0.01,0.04 0.07,-0.15 0.08,-0.2 0.02,-0.05 0.05,-0.14 0.07,-0.2 0.43,-1.53 0.23,-2.39 1.66,-4.47 0.48,-0.69 0.63,-0.67 0.97,-1.49 -2.29,-0.77 -4.68,-1.99 -6.2,-3.54 -2.3,-2.34 -2.4,-3.32 -4.64,-2.75 -2.67,0.68 3.48,10.68 7.96,12.84zm-22.18 -36.48c1.94,-0.63 0.67,-1.67 5.71,-1.67 6.27,0.01 12.94,1.78 19.05,2.85 2.02,0.35 1.81,0.05 3.19,1.2 1.71,1.42 3.23,2.58 4.82,3.93 1.68,1.43 8.72,6.93 9.56,7.95 1.28,1.55 1.76,4.68 1.69,7.01 -0.1,3.22 -1.25,4.36 -2.72,5.92l4.28 12.4c1.26,3.94 3.39,8.91 3.39,13.35 0,2.41 -0.62,4.01 -1.86,5.35 -1.31,1.41 -2.63,1.68 -4.66,2.55 -3.48,1.5 -6.64,3.4 -9.39,5.23 -0.02,1 0.35,1.5 0.66,2.27 1.14,-0.05 3,-0.53 4.43,-0.72 1.75,-0.22 3.04,-0.45 4.9,-0.2 0.43,0.67 1.4,3.46 1.76,4.35l9.02 22.39c1.05,2.64 2.27,6.9 3.45,9.15 1.63,-1.32 11.28,-12.31 13.48,-14.69 1.23,-1.33 1.77,-2 2.68,-2.98 9.13,-9.81 10.71,-14.53 24.23,-21.07 1.26,-0.61 2.68,-1.28 3.88,-1.79 1.35,-0.58 2.75,-1.03 4.05,-1.59 -0.12,-1.01 -0.81,-1.47 -1.37,-2.23 -0.55,-0.73 -1.13,-1.43 -1.69,-2.17 -3.4,-4.44 -6.53,-8.33 -9.25,-13.67 -3.99,-7.81 -5.71,-16.92 -5.7,-26.75 0,-4.52 0.84,-9.07 1.33,-13.41 0.13,-1.15 -2.66,-9.18 -3.04,-11.92 -1.36,-9.67 0.61,-9.8 2.32,-18.61 0.54,-2.76 1.01,-3.61 0.09,-6.19 -1.55,-4.34 0.32,-7.99 1.67,-11.61 2.81,-7.52 8.28,-17.81 12.78,-24.55 0.65,-0.98 2.59,-3.7 2.85,-4.6 -9.16,-3.1 -14.34,-5.19 -21.52,-10.64 -4.38,-3.33 -1.87,-4.69 -11.98,1.58 -5.36,3.32 -10.77,6.88 -15.28,10.46l-17.37 15.08c-13.97,13.53 -27.04,31.66 -35.39,48.8 -0.81,1.65 -3.87,7.78 -4.04,9.24z"/>
    <path class="fil12" d="M215.45 180.52l-1.27 9.26c-0.14,3.01 0.22,8.09 -0.12,10.58 2.11,-2.17 2.66,-2.56 2.6,-4.38 -0.08,-2.23 -0.02,-4.53 0.31,-6.7 0.3,-2 0.72,-3.78 1.44,-5.55 0.51,-1.27 2.3,-3.83 2.28,-4.33 -0.42,-0 -2.18,0.5 -2.81,0.71 -2.67,0.89 -2.02,1.63 -2.42,0.41z"/>
    <path class="fil9" d="M177.59 391.93c0.4,0.58 7.27,4.89 8.48,5.65 1.66,1.05 7.67,5.37 9.14,5.75l0.55 -1.84 0.01 -0.76c-0.99,-0.34 -3.89,-2.26 -4.83,-2.89l-11.7 -7.38c-0.39,-0.1 -2.45,-0.17 -1.66,1.45z"/>
    <path class="fil6" d="M180.94 226.07c0.13,-1.27 -0.32,-3.5 -0.12,-5.33 0.11,-1 1.03,-4.08 0.72,-4.54 -3.27,0.58 -8.09,11.04 -0.32,14.09 -1.61,-4.4 -0.67,-2.44 -0.28,-4.22z"/>
    <path class="fil4" d="M280.14 440.37c3.36,2.91 4.28,1.77 6.11,0.72 1.88,-1.07 4.86,-1.5 4.06,-5.32l0.01 -1.21c-1.02,0.23 -4.04,2.1 -5.26,2.76 -1.08,0.59 -4.43,2.26 -4.91,3.04z"/>
    <path class="fil6" d="M212.15 442.11c-1.23,-0.29 -4.01,0.47 -6.42,-0.06 -0.83,-0.18 -1.88,-0.58 -2.63,-0.99 -0.69,-0.38 -1.61,-1.52 -1.98,-0.74 0.18,0.77 0.43,0.88 1,1.73 0.79,1.19 2.85,4.59 3.65,4.87 2.6,0.91 5.95,-2.99 6.39,-4.81z"/>
    <path class="fil8" d="M295.81 333.58c0.45,0.7 0.9,0.83 1.58,1.35 0.66,0.5 0.98,0.96 1.73,1.38 0.72,-0.75 1.13,-2.45 1.88,-3.62 0.84,-1.31 0.34,-0.94 0.71,-0.27 0.53,-0.65 0.4,-1.36 0.54,-2.28 0.13,-0.84 0.4,-1.31 0.55,-2.17 -1.47,0.74 -3.89,3.03 -5.13,4.29 -1.53,1.56 -0.84,1.33 -1.86,1.31z"/>
    <path class="fil16" d="M219.69 443.61c-0.53,0.9 -1.09,1.21 -1.15,2.37l6.68 0.08c-0.13,-0.78 -0.71,-1.77 -1.09,-2.59l-4.44 0.14z"/>
    <path class="fil14" d="M218.87 229.09c-0.65,-0.98 0.03,-1.81 -1.1,-3.01 -0.73,-0.77 -1.42,-1.23 -2.72,-1.31l0.53 0.66c0.6,0.84 0.71,1.48 0.21,2.53 -0.15,0.31 -0.7,0.98 -0.9,1.16 -0.82,0.76 -0.66,0.32 -1.14,1.21 1.2,0 3.58,-0.09 4.63,-0.81 0.39,-0.26 0.22,-0.13 0.49,-0.43z"/>
    <path class="fil13" d="M214.06 200.37c0.35,-2.49 -0.01,-7.57 0.12,-10.58l1.27 -9.26 0.17 -0.43c-0,-2.58 1,-5.12 1.92,-7.27 0.45,-1.07 0.94,-2.09 1.56,-3.07 0.61,-0.96 1.42,-1.6 1.35,-2.8 0.68,-2.05 1.06,-3.24 2.24,-4.43 0.91,-0.92 2.24,-1.77 3.92,-2.26 3.66,-1.07 7.19,-0.75 10.45,0.7 5.43,2.4 9.04,7.34 10.28,14.4 0.74,0.98 0.43,1.14 0.45,1.28 0,0.02 -0,0.93 0.02,1.18 0.06,0.72 0.25,1.47 0.35,2.19 0.2,1.48 0.36,3.08 0.38,4.55 0.01,1.3 1.28,4.33 1.54,6.42 0.74,5.93 -0.07,8.64 -1.45,13.69 -0.52,1.9 0.01,4.91 -1.3,6.5 -1.82,-5.75 -6.93,-9.09 -13.34,-10.85 -7.37,-2.02 -13.67,-1.58 -20.03,1.22l0.11 -1.18zm-36.83 -47.27l-1 7.12c-3.7,0.09 -5.16,-0.79 -8.6,1.08 -1.62,0.88 -3.94,3.48 -4.45,4.62 -0.85,1.87 -0.25,0.68 0.14,1.06 1.61,-2.39 4.89,-4.56 9.4,-4.45 2.06,0.05 3.79,0.82 5.08,1.83 1.72,1.35 1.5,2.44 2.61,3.8l1.44 1.16c2.14,2.11 6.1,8.35 5.94,11.15 0.38,2.81 3.16,4.69 2.06,16.77 -0.61,6.73 -4.1,13.76 -4.14,14.96 0.09,4.26 -1.51,11.05 4.88,14.05 3.43,1.61 8,1.91 11.55,0.18 1.52,-0.74 1.88,-1.24 3.1,-1.97 -2.22,7.69 -13.57,9.86 -19.66,4.07 -0.68,0.04 -0.29,-0.26 -0.36,0.33l-0.24 0.25 5.7 5.09c1.86,0.16 6.94,3.3 13.32,-2.55 5.31,-4.88 5.02,-6.18 11.05,-6.87 1.3,0.08 1.99,0.54 2.72,1.31 1.13,1.19 0.46,2.03 1.1,3.01 3.62,-0.48 6.29,-10.69 -1.4,-13.02 -2.84,-0.86 -4.03,0.15 -6.16,0.76 1.7,-5.04 10.76,-6.81 15.39,-1.73 3.25,3.56 -0.64,0.85 4.59,3.11 6.62,2.86 12.06,11.84 12.58,18.44l-4.98 3.62c-1.37,1.1 -3,3.06 -4.17,4.58 -1.41,1.83 -1.68,3.78 -2.65,6.11 -0.58,1.38 -2.47,5.09 -2.57,6.09 -0.91,4.38 -4.83,10 -8.38,12.56 -1.49,1.07 -2.83,1.66 -4.58,2.64 2.64,1.87 5.15,1.4 6.38,7.36 -2.81,-0.84 -2.99,-2.09 -9.21,-3.31 -5.86,-1.14 -16.47,-0.51 -20.02,3.73 -3.03,3.62 -0.3,5.84 1.33,8.4 2.61,1.57 9.47,1.62 12.92,1.4 8.73,-0.55 19.1,-6.35 25.17,-12.1 4.54,-4.3 6.46,-6.75 10.37,-12.03 1.09,-1.47 1.86,-3.16 2.93,-4.54 0.71,-0.91 3.81,-1.7 5.23,-2.23 3.44,-1.29 7.25,-2.97 10.36,-4.57 1.96,-1.01 8.61,-4.41 9.07,-5.58 3.13,-5.78 4.82,-8.21 4.97,-16.25 0.12,-6.54 -0.95,-12.72 -2.08,-18.84 -2.37,-12.87 -4.42,-23.77 -1.73,-37.22l-0.79 -0.94c-10.41,-8.63 -26.47,-15.91 -39.39,-19.56 -17.13,-4.83 -30.85,-5.4 -48.17,-3.87 -2.1,0.19 -4.55,0.77 -6.63,0.99z"/>
   </g>
   <path class="fil17" d="M555.76 174.83l-11.39 50.35c-5.57,7.42 -12.72,9.81 -22.53,9.81 -21.99,0 -30.74,-20.14 -30.74,-43.72 0,-42.13 29.68,-91.69 58.83,-91.69 16.96,0 18.29,14.57 18.29,18.81 0,6.62 -5.04,19.87 -11.66,21.73 5.04,5.83 14.05,6.89 18.29,6.89 13.51,0 18.55,-10.33 18.55,-24.38 0,-25.7 -24.64,-35.51 -49.29,-35.51 -59.09,0 -93.81,51.41 -93.81,102.02 0,36.57 13.78,67.84 56.97,67.84 2.38,0 16.96,-1.33 32.33,-9.54l-10.6 47.43c-6.1,27.29 -14.57,32.59 -26.5,32.59 -11.13,0 -16.69,-8.74 -16.69,-18.02 0,-9.81 6.36,-20.14 18.55,-20.14 5.3,0 9.27,1.32 15.9,6.89 1.06,-3.98 1.59,-7.69 1.59,-10.6 0,-16.96 -15.37,-17.75 -25.97,-17.75 -20.93,0 -32.33,18.28 -32.33,36.3 0,18.29 11.66,36.57 36.83,36.57 43.46,0 59.09,-25.44 67.84,-65.98l21.73 -99.64 -34.18 -0.26zm111.56 -23.85c-54.59,0 -72.61,63.6 -72.61,94.07 0,30.21 17.75,41.87 42.4,41.87 32.59,0 59.09,-30.74 63.33,-79.76 19.34,-3.18 36.83,-11.13 46.9,-21.99l-2.39 -7.16c-11.39,7.95 -28.62,15.9 -40.81,15.9 -0.8,0 -1.86,0 -2.92,-0.53 0,-27.82 -11.13,-42.4 -33.92,-42.4zm-19.61 112.09c-10.07,0 -13.52,-3.98 -13.52,-21.46 0,-25.97 16.43,-74.46 35.24,-74.46 6.89,0 9.54,4.24 10.07,15.37 -4.77,2.12 -8.21,6.89 -8.21,14.31 0,5.3 1.59,9.81 7.15,11.13 -4.24,31.27 -17.75,55.12 -30.74,55.12l0 0zm150.51 -109.71l-18.02 85.06c-3.98,13.25 -10.86,23.32 -21.2,23.32 -5.83,0 -7.95,-4.77 -7.95,-10.86 0,-2.38 0.26,-4.77 0.79,-7.42l19.08 -90.1 -38.16 0 -18.02 85.06c-1.33,6.36 -2.12,12.19 -2.12,17.22 0,22.26 12.45,31.8 28.35,31.8 11.13,0 25.97,-3.45 39.22,-25.17 1.59,16.43 11.13,25.17 26.23,25.17 14.31,0 38.16,-5.83 53.26,-49.02l-11.13 0c-3.98,13.25 -11.13,23.32 -21.46,23.32 -7.42,0 -10.86,-2.38 -10.86,-9.81 0,-2.38 0.26,-5.03 1.06,-8.48l19.08 -90.1 -38.16 0zm68.37 0l-28.09 132.49 38.16 0 21.2 -100.69c6.62,-6.1 11.39,-10.07 19.34,-10.07 7.95,0 0.53,17.49 15.37,17.49 12.98,0 19.08,-10.07 19.08,-19.34 0,-10.07 -6.36,-19.87 -18.28,-19.87 -12.72,0 -22.79,8.48 -32.06,16.43l3.45 -16.43 -38.16 0zm223.39 36.57c0,16.96 -11.92,49.55 -11.92,67.57 0,15.1 8.22,29.94 31.27,29.94 14.05,0 34.45,-5.57 49.29,-49.02l-11.13 0c-5.83,13.78 -10.6,23.32 -22.26,23.32 -7.95,0 -10.6,-4.5 -10.6,-11.13 0,-14.84 12.72,-46.9 12.72,-68.37 0,-21.2 -12.45,-29.94 -29.41,-29.94 -9.81,0 -24.11,2.91 -36.83,22.52 -2.91,-16.43 -13.25,-22.79 -27.29,-22.79 -9.27,0 -21.2,2.38 -32.33,15.1l2.91 -13.78 -38.16 0 -28.09 132.49 38.16 0 18.02 -85.06c3.98,-13.25 11.13,-24.65 21.46,-24.65 5.83,0 7.95,5.83 7.95,11.66 0,2.38 -0.26,4.5 -0.8,6.62l-19.34 91.42 38.16 0 18.02 -85.06c3.98,-13.25 11.13,-24.38 20.67,-24.38 6.36,0 9.54,4.77 9.54,13.51l0 0zm93.28 53c0,-3.18 0.27,-6.89 0.53,-10.6 31.8,-1.85 60.95,-25.44 60.95,-55.91 0,-13.25 -5.57,-25.44 -29.15,-25.44 -54.32,0 -71.55,63.86 -71.55,94.34 0,29.94 16.43,42.13 41.34,42.13 35.24,0 57.77,-24.65 72.87,-49.02l-9.01 0c-13.25,15.1 -25.97,26.76 -46.9,26.76 -12.72,0 -19.08,-4.24 -19.08,-22.26zm41.07 -67.04c0,21.99 -18.02,42.4 -38.42,43.72 5.3,-26.23 18.28,-54.59 31.8,-54.59 5.04,0 6.62,4.24 6.62,10.86zm80.03 -11.92l15.9 0 2.12 -10.6 -15.9 0c5.04,-23.85 9.01,-41.87 9.01,-41.87l-39.22 5.3 -7.95 36.57 -8.74 0 -2.12 10.6 8.74 0 -16.96 79.5c-1.06,4.77 -1.59,9.54 -1.59,14.05 0,16.96 7.95,29.94 26.5,29.94 9.01,0 20.67,-3.18 28.09,-25.97 -2.12,0.79 -5.03,0.79 -6.89,0.79 -7.15,0 -9.27,-3.98 -9.27,-9.54 0,-2.92 0.53,-6.1 1.33,-9.28l16.96 -79.5z"/>
   <g>
    <polygon class="fil18" points="1209.87,306.6 565.39,309.98 619.17,371.55 566.04,433.68 1210.52,430.31 1156.74,368.73 "/>
    <path class="fil19" d="M691.36 350.14l-0.03 -5.44c-2.98,-1.29 -6.07,-1.93 -9.29,-1.91 -3.39,0.02 -6.55,0.69 -9.49,2.01 -2.94,1.32 -5.51,3.14 -7.73,5.44 -2.22,2.3 -3.96,4.97 -5.22,8.01 -1.26,3.04 -1.88,6.25 -1.87,9.64 0.02,3.39 0.67,6.6 1.97,9.62 1.29,3.03 3.06,5.65 5.3,7.87 2.24,2.22 4.84,3.97 7.79,5.27 2.95,1.29 6.12,1.93 9.51,1.91 4.4,-0.02 8.47,-1.14 12.2,-3.36l4.04 5.87c-2.37,1.38 -4.91,2.48 -7.61,3.3 -2.7,0.82 -5.57,1.23 -8.6,1.25 -4.4,0.02 -8.54,-0.79 -12.41,-2.43 -3.87,-1.64 -7.26,-3.9 -10.16,-6.77 -2.9,-2.87 -5.19,-6.23 -6.87,-10.09 -1.68,-3.86 -2.54,-7.99 -2.56,-12.39 -0.02,-4.4 0.79,-8.55 2.43,-12.45 1.64,-3.9 3.9,-7.3 6.77,-10.2 2.87,-2.9 6.23,-5.21 10.09,-6.92 3.86,-1.72 7.99,-2.59 12.38,-2.61 3.03,-0.02 5.9,0.36 8.61,1.11 2.71,0.76 5.29,1.85 7.73,3.26l0.05 9.99 -7.05 0.04zm39.19 41.45l6.87 -0.04 -0.07 -13.88c-0.13,-1.62 -0.71,-3 -1.76,-4.15 -1.05,-1.17 -2.7,-1.8 -4.96,-1.91 -1.55,0.01 -3.02,0.29 -4.41,0.83 -1.4,0.54 -2.62,1.31 -3.69,2.26 -1.07,0.96 -1.92,2.11 -2.57,3.42 -0.65,1.31 -0.96,2.76 -0.96,4.3l0.05 9.23 5.62 -0.03 0.04 7.05 -19.8 0.1 -0.04 -7.05 6.78 -0.04 -0.28 -52.8 -6.78 0.04 -0.04 -7.05 14.18 -0.07 0.2 37.99 -0.25 4.02c1.29,-2.92 3.18,-5.17 5.67,-6.76 2.49,-1.59 5.43,-2.48 8.82,-2.68 3.51,-0.02 6.28,0.89 8.31,2.72 2.03,1.83 3.11,4.23 3.25,7.21l0.09 17.21 5.53 -0.03 0.04 7.05 -19.8 0.1 -0.04 -7.04zm43.78 -20.21c-3.03,0.02 -5.49,0.94 -7.39,2.76 -1.89,1.82 -2.89,4.1 -3,6.84 2.79,-1.03 5.56,-2.07 8.32,-3.12 2.76,-1.06 5.54,-2.09 8.32,-3.12 -0.84,-1.01 -1.78,-1.82 -2.82,-2.44 -1.04,-0.62 -2.19,-0.92 -3.44,-0.92zm15.74 7.5c-4.04,1.51 -8.05,3.02 -12.06,4.52 -4.01,1.51 -8.03,3.02 -12.06,4.52 0.9,1.24 2.08,2.23 3.54,2.97 1.46,0.74 3.11,1.1 4.96,1.09 2.74,-0.01 4.99,-0.98 6.76,-2.89l4.58 5.33c-1.48,1.49 -3.17,2.66 -5.07,3.51 -1.9,0.84 -3.98,1.27 -6.24,1.28 -2.5,0.01 -4.83,-0.44 -7.01,-1.35 -2.18,-0.91 -4.07,-2.16 -5.69,-3.76 -1.61,-1.6 -2.89,-3.45 -3.82,-5.56 -0.93,-2.1 -1.41,-4.38 -1.42,-6.81 -0.01,-2.38 0.44,-4.64 1.35,-6.79 0.91,-2.15 2.16,-4.01 3.76,-5.59 1.6,-1.58 3.48,-2.84 5.65,-3.78 2.16,-0.93 4.49,-1.41 6.99,-1.42 1.84,-0.01 3.62,0.35 5.31,1.09 1.7,0.74 3.22,1.75 4.56,3.05 1.34,1.3 2.53,2.86 3.55,4.66 1.02,1.81 1.8,3.78 2.35,5.92zm6.67 12.36l5.44 -0.03 -0.1 -19.18 -5.44 0.03 -0.04 -7.23 5.35 -0.03 -0.07 -12.67c-0.02,-3.33 0.52,-6.28 1.6,-8.84 1.09,-2.56 2.58,-4.73 4.47,-6.49 1.89,-1.76 4.16,-3.11 6.8,-4.05 2.64,-0.94 5.48,-1.47 8.51,-1.61l0.04 7.05c-4.07,0.26 -7.42,1.59 -10.04,3.98 -2.62,2.39 -3.91,5.79 -3.89,10.19l0.07 12.4 10.44 -0.05 0.04 7.23 -10.44 0.05 0.1 19.18 7.05 -0.04 0.04 7.05 -19.89 0.1 -0.04 -7.05zm97.62 -42.16l-0.03 -5.44c-2.98,-1.29 -6.07,-1.93 -9.29,-1.91 -3.39,0.02 -6.55,0.69 -9.49,2.01 -2.94,1.32 -5.51,3.14 -7.73,5.44 -2.22,2.3 -3.96,4.97 -5.22,8.01 -1.26,3.04 -1.89,6.25 -1.87,9.64 0.02,3.39 0.67,6.6 1.97,9.62 1.3,3.03 3.06,5.65 5.31,7.87 2.24,2.22 4.84,3.97 7.79,5.27 2.95,1.29 6.12,1.93 9.51,1.91 4.4,-0.02 8.47,-1.14 12.2,-3.36l4.04 5.87c-2.37,1.38 -4.91,2.48 -7.61,3.29 -2.7,0.82 -5.57,1.23 -8.6,1.25 -4.4,0.02 -8.54,-0.79 -12.41,-2.43 -3.87,-1.64 -7.26,-3.9 -10.16,-6.77 -2.9,-2.87 -5.19,-6.23 -6.87,-10.09 -1.68,-3.86 -2.54,-7.98 -2.56,-12.38 -0.02,-4.4 0.79,-8.55 2.43,-12.45 1.64,-3.91 3.9,-7.31 6.77,-10.21 2.87,-2.9 6.23,-5.21 10.09,-6.92 3.86,-1.72 7.98,-2.59 12.38,-2.61 3.03,-0.02 5.9,0.36 8.61,1.11 2.71,0.76 5.29,1.85 7.73,3.26l0.05 9.99 -7.05 0.04zm13.37 15.18l13.29 -0.07 0.11 20.94c0.13,1.6 0.71,2.99 1.76,4.15 1.05,1.16 2.7,1.79 4.96,1.89 1.55,-0.01 3.02,-0.28 4.41,-0.83 1.39,-0.56 2.62,-1.31 3.69,-2.28 1.06,-0.96 1.92,-2.11 2.57,-3.43 0.65,-1.31 0.97,-2.75 0.96,-4.32l-0.05 -9.19 -5.88 0.03 -0.04 -7.05 13.29 -0.07 0.14 27.2 5.53 -0.03 0.03 6.24 -12.93 0.07 -0.02 -4.55 0.25 -4.02c-1.17,2.86 -3.08,5.15 -5.72,6.85 -2.64,1.71 -5.56,2.57 -8.77,2.59 -3.51,0.02 -6.28,-0.89 -8.31,-2.72 -2.03,-1.83 -3.11,-4.24 -3.25,-7.21l-0.09 -17.21 -5.89 0.03 -0.04 -7.05zm50.97 26.13l6.24 -0.03 -0.1 -19.35 -6.24 0.03 -0.04 -7.05 13.65 -0.07 0.14 26.4 6.15 -0.03 0.04 7.05 -19.8 0.1 -0.04 -7.05zm5.23 -39.36c-0.01,-1.37 0.46,-2.5 1.41,-3.4 0.95,-0.9 2.02,-1.35 3.2,-1.35 1.13,-0.01 2.17,0.44 3.13,1.32 0.95,0.89 1.44,2.01 1.44,3.38 0.01,1.37 -0.46,2.49 -1.41,3.35 -0.95,0.87 -1.99,1.3 -3.11,1.31 -1.19,0.01 -2.26,-0.42 -3.22,-1.28 -0.96,-0.86 -1.44,-1.97 -1.45,-3.34zm28.46 35.53l0.02 3.48c0.73,0.29 1.43,0.48 2.11,0.57 0.7,0.09 1.56,0.12 2.57,0.12 0.06,0 0.28,-0.02 0.68,-0.05 0.39,-0.03 0.82,-0.15 1.31,-0.36 0.48,-0.21 0.9,-0.52 1.3,-0.94 0.38,-0.42 0.6,-1.04 0.66,-1.88 0.05,-1.07 -0.25,-1.89 -0.91,-2.45 -0.67,-0.56 -1.52,-1.03 -2.56,-1.41 -1.06,-0.38 -2.2,-0.76 -3.47,-1.14 -1.25,-0.38 -2.44,-0.91 -3.55,-1.59 -1.12,-0.68 -2.03,-1.64 -2.77,-2.88 -0.72,-1.25 -1.09,-2.91 -1.1,-4.99 -0.01,-1.84 0.34,-3.39 1.05,-4.64 0.71,-1.25 1.59,-2.28 2.66,-3.09 1.07,-0.81 2.22,-1.39 3.47,-1.76 1.25,-0.36 2.38,-0.55 3.39,-0.55 0.59,-0 1.32,0.05 2.18,0.17 0.87,0.11 1.74,0.32 2.63,0.61 0.89,0.29 1.77,0.68 2.64,1.15 0.86,0.47 1.62,1.06 2.28,1.77l0.04 7.76 -6.6 0.03 -0.02 -3.83c-0.91,-0.29 -1.82,-0.44 -2.72,-0.43 -1.32,0.01 -2.29,0.29 -2.88,0.86 -0.61,0.57 -0.84,1.33 -0.72,2.28 0.12,0.71 0.57,1.29 1.36,1.73 0.78,0.44 1.68,0.87 2.74,1.28 1.04,0.41 2.18,0.88 3.37,1.41 1.21,0.53 2.31,1.19 3.34,1.99 1.01,0.8 1.85,1.8 2.53,3.02 0.66,1.22 1,2.75 1,4.59 0.01,0.83 -0.15,1.84 -0.47,3.03 -0.32,1.19 -0.9,2.35 -1.72,3.49 -0.83,1.13 -1.98,2.09 -3.46,2.87 -1.48,0.78 -3.42,1.18 -5.79,1.19 -2.2,0.01 -4.31,-0.26 -6.34,-0.81 -2.02,-0.55 -3.63,-1.48 -4.83,-2.78l-0.04 -7.76 6.6 -0.03zm21.96 3.54l6.24 -0.03 -0.1 -19.35 -6.24 0.03 -0.04 -7.05 13.65 -0.07 0.14 26.4 6.15 -0.03 0.04 7.05 -19.8 0.1 -0.04 -7.05zm5.23 -39.36c-0.01,-1.37 0.46,-2.5 1.41,-3.4 0.95,-0.9 2.02,-1.35 3.2,-1.35 1.13,-0.01 2.17,0.43 3.13,1.32 0.96,0.89 1.44,2.01 1.45,3.38 0.01,1.37 -0.46,2.49 -1.41,3.35 -0.95,0.87 -1.99,1.3 -3.11,1.31 -1.19,0.01 -2.26,-0.42 -3.22,-1.28 -0.95,-0.86 -1.44,-1.97 -1.44,-3.34zm46.5 39.09l6.87 -0.04 -0.07 -13.88c-0.13,-1.62 -0.71,-3 -1.76,-4.15 -1.05,-1.17 -2.7,-1.8 -4.96,-1.91 -1.55,0.01 -3.02,0.29 -4.41,0.83 -1.39,0.56 -2.62,1.31 -3.69,2.28 -1.07,0.96 -1.92,2.1 -2.57,3.43 -0.65,1.31 -0.97,2.75 -0.96,4.32l0.05 9.19 5.62 -0.03 0.04 7.05 -19.8 0.1 -0.04 -7.05 6.78 -0.04 -0.1 -19.35 -5.89 0.03 -0.04 -7.05 12.4 -0.06 0 0.8c0.13,1.43 0.24,2.72 0.33,3.88 0.1,1.16 0.21,2.45 0.33,3.88 1.17,-2.86 3.08,-5.15 5.72,-6.85 2.64,-1.71 5.56,-2.57 8.77,-2.59 3.51,-0.02 6.28,0.89 8.31,2.72 2.03,1.83 3.11,4.23 3.25,7.21l0.09 17.21 5.53 -0.03 0.04 7.05 -19.8 0.1 -0.04 -7.05zm43.78 -20.21c-3.03,0.02 -5.49,0.94 -7.39,2.76 -1.9,1.82 -2.89,4.1 -3,6.84 2.79,-1.03 5.57,-2.07 8.32,-3.12 2.76,-1.05 5.54,-2.09 8.32,-3.12 -0.84,-1.01 -1.78,-1.82 -2.82,-2.44 -1.04,-0.62 -2.19,-0.92 -3.44,-0.92zm15.74 7.5c-4.04,1.51 -8.06,3.02 -12.06,4.52 -4.01,1.51 -8.03,3.02 -12.06,4.52 0.9,1.24 2.08,2.23 3.54,2.97 1.46,0.74 3.11,1.1 4.95,1.09 2.74,-0.02 4.99,-0.98 6.76,-2.89l4.58 5.33c-1.48,1.49 -3.17,2.66 -5.06,3.51 -1.9,0.84 -3.98,1.27 -6.24,1.28 -2.5,0.01 -4.84,-0.44 -7.01,-1.35 -2.18,-0.91 -4.07,-2.16 -5.68,-3.76 -1.61,-1.6 -2.89,-3.45 -3.82,-5.56 -0.93,-2.1 -1.4,-4.38 -1.42,-6.82 -0.01,-2.38 0.44,-4.64 1.35,-6.79 0.91,-2.15 2.16,-4.01 3.76,-5.59 1.6,-1.58 3.48,-2.84 5.64,-3.77 2.16,-0.93 4.5,-1.41 6.99,-1.42 1.84,-0.01 3.61,0.35 5.31,1.09 1.7,0.74 3.22,1.75 4.57,3.05 1.34,1.3 2.53,2.86 3.55,4.66 1.02,1.81 1.8,3.78 2.35,5.92z"/>
    <polygon class="fil18" points="1233.58,349.57 1214.93,368.43 1233.78,387.09 1252.44,368.23 "/>
    <polygon class="fil18" points="538.89,353.21 520.23,372.07 539.09,390.73 557.75,371.87 "/>
   </g>
  </g>
 </g>
</svg>
